<svg width="51" height="47" viewBox="0 0 51 47" fill="none" xmlns="http://www.w3.org/2000/svg">
<g clip-path="url(#clip0_49_290)">
<path d="M27.959 8.06856C27.4612 7.88669 27.0345 7.83791 26.4798 7.90465C26.031 7.95676 25.6691 8.0645 25.2662 8.26219C22.8569 9.45299 21.4482 12.8995 22.2024 15.776C22.3046 16.1679 22.5425 16.7437 22.74 17.0769C23.3855 18.1721 24.4466 18.8227 25.5949 18.828C26.7732 18.8317 27.9445 18.2035 28.9211 17.0434C29.1701 16.7434 29.7763 15.7185 29.919 15.3462C30.5196 13.7932 30.6347 12.2872 30.2639 10.8851C30.1696 10.5356 29.9259 9.95111 29.7427 9.63695C29.5714 9.34591 29.1973 8.88095 28.9749 8.68484C28.7771 8.50842 28.1912 8.15394 27.959 8.06856Z" fill="black"/>
<path d="M38.3646 14.6229C37.4511 14.2606 36.2924 14.2357 35.1399 14.55C33.6583 14.953 32.304 15.8356 31.2713 17.0742C30.9423 17.4689 30.3856 18.4519 30.2372 18.8966C29.9028 19.9133 29.9054 20.8404 30.249 21.6396C30.5411 22.3278 31.0866 22.8836 31.7811 23.2061C33.4384 23.9681 35.7327 23.5769 37.6275 22.2081C39.1999 21.0726 40.2047 19.5012 40.3517 17.9461C40.4947 16.4292 39.7379 15.1641 38.3646 14.6229Z" fill="black"/>
<path d="M17.0749 11.1648C15.8914 10.6574 14.6709 10.8458 13.6805 11.6921C13.1139 12.1796 12.5978 13.0048 12.3379 13.8425C11.729 15.7913 12.1457 18.1456 13.3674 19.6683C13.9937 20.4466 14.7662 20.9657 15.5807 21.1491C16.7815 21.4202 17.9236 20.9862 18.8378 19.9092C19.0206 19.6926 19.4343 18.9761 19.55 18.6695C20.4894 16.2295 19.7844 13.2054 17.9291 11.6985C17.7104 11.5208 17.2908 11.2597 17.0749 11.1648Z" fill="black"/>
<path d="M39.0699 26.0557C38.0051 25.6493 36.7529 25.6111 35.5003 25.9488C34.1402 26.3164 32.9092 27.1104 32.0851 28.1502C31.8707 28.4215 31.5109 29.0636 31.3944 29.3779C30.6137 31.4928 31.824 33.4229 34.2008 33.8642C35.4761 34.0998 36.881 33.8798 38.1601 33.2462C40.5845 32.0479 41.819 29.7159 41.0163 27.8425C40.6785 27.0521 39.9637 26.3958 39.0699 26.0557Z" fill="black"/>
<path d="M25.222 22.8752C23.2915 22.08 20.2165 22.1855 16.9849 23.156C14.4553 23.9174 12.3148 25.074 11.1642 26.3041C10.8888 26.5998 10.5291 27.204 10.4648 27.4781C10.366 27.9055 10.4145 28.2529 10.6308 28.716C10.9947 29.4863 11.58 30.1544 12.4372 30.7765C12.8829 31.0988 13.8518 31.6338 14.5008 31.9165C15.3708 32.2916 16.1299 32.5648 17.8625 33.1213C19.5367 33.6603 19.9923 33.834 20.3921 34.0919C20.8993 34.4199 21.2368 34.742 22.1486 35.7637C22.8019 36.4953 23.1786 36.8807 23.522 37.1736C24.8069 38.2619 26.21 38.62 28.0363 38.3267C28.5806 38.2404 28.7787 38.1599 29.0791 37.9084C29.2495 37.7633 29.2784 37.7258 29.5257 37.2975C29.7495 36.9098 29.8046 36.7955 29.8794 36.541C30.3416 35.0027 30.3359 32.8181 29.8621 30.4688C29.2984 27.6752 28.1515 25.235 26.78 23.9154C26.2812 23.4353 25.8045 23.1168 25.222 22.8752Z" fill="black"/>
</g>
<defs>
<clipPath id="clip0_49_290">
<rect width="40.0141" height="30" fill="white" transform="translate(15.8445 0.197433) rotate(30)"/>
</clipPath>
</defs>
</svg>
