<svg width="497" height="144" viewBox="0 0 497 144" fill="none" xmlns="http://www.w3.org/2000/svg">
<g clip-path="url(#clip0_48_100)">
<path d="M0 51.9347L13.8228 68.6395C27.5939 85.2127 55.2395 118.622 82.8333 131.249C110.427 144.008 138.073 136.116 165.667 117.044C193.261 97.9714 220.906 67.7187 248.5 51.277C276.094 34.8354 303.74 32.2047 331.333 39.0444C358.927 45.7526 386.573 62.0628 414.167 67.061C441.761 72.0593 469.406 66.0088 483.177 62.852L497 59.8267V179.522H483.177C469.406 179.522 441.761 179.522 414.167 179.522C386.573 179.522 358.927 179.522 331.333 179.522C303.74 179.522 276.094 179.522 248.5 179.522C220.906 179.522 193.261 179.522 165.667 179.522C138.073 179.522 110.427 179.522 82.8333 179.522C55.2395 179.522 27.5939 179.522 13.8228 179.522H0V51.9347Z" fill="#C02DA9"/>
</g>
<defs>
<clipPath id="clip0_48_100">
<rect width="497" height="144" rx="20" fill="white"/>
</clipPath>
</defs>
</svg>
