<svg width="556" height="254" viewBox="0 0 556 254" fill="none" xmlns="http://www.w3.org/2000/svg">
<g clip-path="url(#clip0_48_196)">
<path d="M9.51687 1.1938L9.30374 4.99957L8.51607 7.51417L5.8936 13.7499L5.143 17.5387L5.80094 21.3318L7.8952 26.3186L8.60874 28.8375L8.62727 32.6432L7.51527 36.4194L4.45727 43.9081L3.84567 47.7054L4.43874 51.5027L7.88594 60.2488L8.3678 62.7803L8.3956 65.3161L7.21874 70.3665L3.15067 80.3529L2.5298 82.876L2.3074 85.416L2.8078 89.2175L6.74614 99.2124L7.44114 101.731L7.73767 104.267L7.32994 108.073L6.06967 111.836L3.45647 118.072L2.78927 120.595L2.59467 123.131L3.28967 126.924L6.32914 134.417L7.0612 138.21L6.49594 142.007L3.95687 148.247L3.13214 152.036L3.65107 155.833L6.63494 163.33L7.1168 167.132L6.3106 170.921L3.79007 177.165L3.1414 180.958L3.85494 184.751L6.8944 192.244L7.52454 196.037L6.87587 199.834L3.91054 207.332L3.4194 211.129L3.73447 213.665L4.4758 216.184L8.5624 226.17L9.2018 228.693L9.452 231.229L9.2574 233.765L8.618 236.288L5.52294 243.776L4.81867 246.295L4.54994 250.101L5.21714 253.894" stroke="#E78BAE" stroke-width="3"/>
<path d="M27.5776 0.237076L23.7876 8.95774L23.1204 12.7508L23.8802 16.5396L26.1228 21.5138L26.9012 24.0284L26.9197 27.8342L25.7428 31.6061L22.4161 39.0694L21.5728 42.8583L21.6748 45.3983L22.3142 47.9171L25.9838 56.6462L26.4656 59.1778L26.4564 61.7178L25.159 66.7554L20.3033 77.9695L19.6639 80.4926L19.4044 83.0284L19.5805 85.5641L20.1643 88.0914L24.4455 98.0609L25.2239 100.571L25.6224 103.107L25.576 105.647L25.0849 108.174L24.2324 110.685L20.4238 119.401L19.6732 123.194L20.0624 126.996L24.1397 136.978L24.7142 140.775L23.9822 144.568L21.2392 150.796L20.3126 154.576L20.7759 158.377L23.9636 165.854L24.8254 169.638L24.2694 173.435L21.1373 180.92L20.7203 184.721L21.6284 188.506L25.3444 197.227L25.8726 201.028L25.1498 204.821L21.5172 213.55L21.0724 217.352L21.3968 219.888L22.1196 222.407L28.0132 236.11L28.9491 241.169L28.8194 243.709L28.2448 246.232L24.983 253.704" stroke="#E78BAE" stroke-width="3"/>
<path d="M45.7495 0.292099L45.314 2.82363L45.3603 5.3594L46.0831 7.87823L49.0577 14.0801L49.7249 17.8731L49.3543 20.4047L48.4739 22.9108L44.7858 30.3445L43.8221 32.8464L43.2475 36.6437L43.9703 40.4326L47.9921 49.1278L48.5944 51.6551L48.6778 54.1909L48.2608 56.7224L47.4453 59.237L42.6174 69.1515L41.0977 72.898L40.2451 76.6868L40.1803 79.2268L40.5417 81.7584L41.3015 84.2772L45.4808 92.9555L46.9635 96.7063L47.5287 99.2336L47.6863 101.769L47.399 104.305L46.2499 108.077L41.0421 119.257L40.4397 121.78L40.3378 124.32L41.1533 128.109L45.6939 138.049L46.2963 141.846L45.5642 145.639L42.0614 153.086L41.1811 156.87L41.7463 160.668L45.7495 169.367L46.5465 173.156L45.8885 176.949L42.9325 183.151L42.0336 185.657L41.7649 189.459L42.7935 193.239L47.4731 203.17L48.1311 205.689L48.3071 208.229L47.5565 212.018L43.0344 221.962L42.4691 224.489L42.3765 227.029L42.7286 229.561L43.8962 233.333L51.2354 248.2L53.1629 253.2" stroke="#E78BAE" stroke-width="3"/>
<path d="M63.0411 0.309036L66.3401 6.477L67.0814 8.99584L67.1277 11.5316L66.0621 15.3077L61.4936 23.948L60.4372 26.4414L59.8071 28.9645L59.7607 31.5045L60.8449 35.2764L64.1161 41.4486L65.0891 43.9505L65.5431 46.4778L65.4412 49.0178L64.8481 51.5408L63.8844 54.0427L58.6395 63.9191L56.9807 67.6487L55.9429 71.429L55.7297 73.9648L55.9521 76.5048L57.0456 80.2809L62.1515 90.1658L63.662 93.9123L64.3941 97.7053L64.357 100.245L63.9122 102.777L62.5871 106.536L58.0279 115.181L56.4247 118.919L55.8039 121.442L55.6834 123.977L56.0911 126.513L56.9622 129.019L60.8264 136.432L61.8643 138.925L62.5129 142.723L61.7901 146.511L58.0464 153.937L56.851 157.704L56.8325 160.24L57.4626 162.763L61.8087 171.425L62.6612 173.935L62.9207 176.471L62.0774 180.255L58.8897 186.436L57.8796 188.934L57.4255 192.735L57.8796 195.263L58.8063 197.769L64.5053 208.894L65.3207 211.408L65.7099 213.94L65.6173 216.48L65.0057 219.003L63.9771 221.496L60.0573 228.905L59.1491 231.411L58.658 233.938L58.6117 236.478L59.2789 240.276L60.604 244.035L62.3369 247.764L65.7192 253.924" stroke="#E78BAE" stroke-width="3"/>
<path d="M81.9915 0.694275L82.3992 3.22581L81.7227 7.01887L80.0084 10.7484L75.0971 19.3463L74.1519 21.8525L73.7163 24.3798L73.9202 26.9198L74.782 29.4259L78.2477 35.5769L79.3319 38.0661L79.9343 41.8634L79.6007 44.395L77.6825 49.3945L70.8251 61.7008L69.4444 65.46L68.8606 69.2573L68.9996 71.7973L70.0189 75.5735L71.1309 78.0627L75.3565 85.4371L77.1821 89.1498L78.3497 92.9217L78.6555 95.4574L78.3404 99.2632L77.2006 103.035L75.4399 106.76L69.9448 116.603L68.666 120.366L68.3695 122.902L68.6011 125.438L69.3332 127.957L70.4637 130.442L74.5967 137.825L75.5789 140.322L76.0608 142.854L75.9125 145.39L75.1527 147.904L71.1402 155.3L69.8336 159.059L69.7595 161.599L70.3433 164.122L71.4367 166.611L75.5326 173.998L76.4222 176.505L76.7187 179.04L75.9125 182.825L71.3626 191.465L70.6398 193.984L70.5379 196.524L71.0197 199.051L71.9557 201.557L79.3783 215.104L80.6941 218.868L81.1204 221.399L80.9258 225.205L80.203 227.724L79.091 230.209L74.2631 238.824L73.0399 242.587L72.7526 245.123L72.8731 247.663L73.3549 250.194L74.5874 253.962" stroke="#E78BAE" stroke-width="3"/>
<path d="M101.22 0.139709L94.9277 9.88484L93.3524 13.6229L92.9539 16.1544L93.2319 18.6902L94.2142 21.1878L98.0228 27.2923L99.1811 29.7773L99.7371 32.3046L99.3572 36.1061L97.2259 41.0887L88.9693 54.538L87.4217 58.2803L86.6897 62.0734L86.9399 65.8791L88.1909 69.6426L90.1925 73.3425L94.8165 80.6619L97.1332 85.6276L97.995 89.4165V93.2222L97.1703 97.0153L95.6505 100.758L93.6304 104.458L88.2372 112.996L86.319 116.705L85.1421 120.472L84.9475 123.012L85.2719 125.548L86.0873 128.058L87.3013 130.535L92.4906 139.103L93.5285 141.597L94.0381 144.124L93.9084 146.664L93.1485 149.178L88.1353 157.768L86.8379 161.523L86.7916 164.063L87.4217 166.586L88.5801 169.071L93.7601 177.635L94.7517 180.137L95.1965 182.664L94.9648 185.2L94.0845 187.71L89.6643 195.055L88.5152 197.54L87.8943 200.063L87.8851 202.599L88.404 205.13L89.9515 208.873L101.303 227.199L103.675 232.16L104.926 235.928L105.621 240.995L105.167 244.797L103.768 248.552L100.784 253.441" stroke="#E78BAE" stroke-width="3"/>
<path d="M118.734 1.13454L118.706 3.67454L119.262 6.1976L120.55 8.66987L124.136 13.4747L125.637 15.9216L126.481 18.4277L126.555 20.9677L125.971 23.4908L124.201 27.2119L121.792 30.861L114.656 40.4834L112.34 44.141L110.588 47.8663L109.69 51.6509L109.68 54.1909L110.644 57.9713L112.59 61.6754L118.65 70.1209L120.847 73.7997L122.635 78.8077L122.996 82.6135L122.264 87.6766L120.374 92.6846L116.853 98.8229L109.124 109.694L106.789 113.352L104.982 117.069L104.037 120.853L104.018 123.393L104.954 127.178L106.863 130.882L113.424 140.589L114.972 144.331L115.287 146.863L114.934 149.399L113.934 151.896L108.281 160.397L107.095 162.878L106.539 165.405L106.706 167.941L107.54 170.451L108.856 172.919L113.952 180.175L116.167 183.845L117.168 186.343L117.613 188.874L117.39 191.41L116.528 193.921L115.129 196.376L110.857 202.417L109.476 204.881L108.568 207.383L108.262 211.188L108.698 213.72L110.051 217.479L111.988 221.183L115.101 226.06L124.044 238.083L136.702 253.547" stroke="#E78BAE" stroke-width="3"/>
<path d="M134.867 0.347137L138.88 5.08847L140.483 7.5184L141.372 10.0203L141.511 11.2903L141.215 13.8261L139.676 17.5641L137.332 21.2217L127.778 33.147L124.359 37.9815L121.94 42.9345L121.189 46.7275L121.644 50.5291L123.302 54.2586L124.915 56.6886L131.383 65.0706L134.033 70.0024L134.802 72.517L135.173 75.0528L134.839 80.1243L133.31 85.1535L130.178 91.3384L126.119 97.4132L117.038 109.415L113.989 114.3L112.432 118.042L111.83 121.84L112.062 124.375L113.341 128.139L115.509 131.818L122.394 141.474L123.58 143.955L124.238 146.478L124.229 149.013L122.959 152.777L121.449 155.219L117.019 161.239L115.667 163.703L114.916 166.218L115.157 170.019L116.13 172.517L117.557 174.972L125.378 185.826L127.074 189.556L127.556 192.083L127.389 194.623L125.943 198.37L119.855 206.811L117.863 210.507L117.01 214.296L117.297 218.101L118.993 223.118L123.098 230.501L128.983 238.976L140.01 253.357" stroke="#E78BAE" stroke-width="3"/>
<path d="M154.855 0.897476L155.059 2.16324L154.846 4.69901L153.993 7.20938L152.678 9.67741L149.221 14.5034L138.917 26.2975L135.071 31.0642L131.976 35.941L130.91 38.4344L130.28 40.9575L130.391 44.7633L131.828 48.5098L134.33 52.1462L141.094 60.4774L142.568 62.9243L143.652 65.4177L144.301 67.9408L144.541 70.4765L144.412 73.0165L143.615 76.8054L141.076 83.0453L137.462 89.1794L132.226 96.41L122.774 108.356L120.291 111.993L117.816 116.942L116.955 120.726L117.205 124.532L118.576 128.291L120.819 131.957L127.973 141.575L129.752 145.296L130.243 147.824L130.039 150.36L128.492 154.102L123.135 161.315L120.986 164.994L120.226 168.779L120.643 171.31L121.681 173.808L123.173 176.255L129.65 184.633L132.115 188.273L133.829 191.999L134.339 194.53L134.228 197.066L132.865 200.821L131.299 203.259L125.739 210.439L123.738 214.139L122.857 217.924L123.071 221.729L124.6 226.759L127.722 232.943L133.162 241.478L141.752 253.56" stroke="#E78BAE" stroke-width="3"/>
<path d="M174.519 0.766235L163.195 10.9559L155.282 19.0754L150.769 25.0783L149.471 27.5463L148.628 30.0567L148.48 33.8624L149.907 37.6089L152.659 41.203L159.248 48.2007L160.971 50.6137L162.204 53.0902L162.899 55.6091L163.001 59.4191L162.565 61.9506L161.333 65.7183L157.533 73.1351L151.788 81.6271L145.227 89.9964L132.17 105.389L128.547 110.194L125.712 115.104L124.766 117.606L124.247 120.134L124.405 123.939L125.684 127.703L128.76 132.58L136.294 142.138L138.249 145.838L138.88 148.361L138.815 150.901L138.027 153.412L135.775 157.078L130.947 163.034L129.372 165.468L128.362 167.966L128.075 170.498L128.529 173.029L130.326 176.746L132.949 180.361L138.917 187.477L141.604 191.084L143.689 194.771L144.838 198.543L144.912 201.079L143.846 204.855L141.567 208.517L136.572 214.444L133.94 218.055L132.226 221.784L131.596 225.577L132.189 230.649L133.876 235.67L137.545 243.099L143.383 252.904" stroke="#E78BAE" stroke-width="3"/>
<path d="M190.087 0.897476L190.106 3.43324L190.995 5.93938L192.7 8.35238L195.304 10.596L202.949 15.8962L205.266 18.1991L206.044 19.4183L206.535 20.6671L206.739 23.2029L206.118 25.726L204.96 28.2109L201.745 33.0708L194.85 41.3851L137.656 104.788L133.95 109.58L131.652 113.242L130.021 116.975L129.428 119.499L129.446 123.309L130.104 125.827L131.225 128.317L133.598 131.966L142.345 142.672L144.412 146.363L145.116 148.882L145.135 151.418L143.8 155.173L142.188 157.603L136.257 164.727L134.747 167.17L134.209 168.415L133.69 170.942L133.931 173.478L134.839 175.98L137.11 179.646L147.229 191.474L149.916 195.08L152.557 200.012L153.465 203.797L153.4 206.333L152.196 210.1L149.814 213.749L141.687 223.203L139.593 226.89L138.527 230.666L138.425 234.472L139.38 239.535L141.669 245.796L145.283 253.234" stroke="#E78BAE" stroke-width="3"/>
<path d="M183.702 0.884766L180.746 4.445L178.457 8.10683L177.568 10.613L177.484 13.1487L179.051 16.8868L180.95 19.2701L189.077 25.9207L191.347 28.2363L192.209 29.4428L193.266 31.9363L193.451 34.472L192.969 36.9993L191.987 39.5012L189.93 43.1927L187.446 46.8291L178.874 57.5649L162.528 76.4625L141.409 99.9617L135.405 107.069L131.299 113.132L129.631 116.865L129.02 119.388L129.001 123.194L129.631 125.717L130.725 128.206L133.079 131.86L139.992 140.174L142.595 143.789L144.301 147.515L144.69 150.046L144.338 152.582L143.29 155.075L141.678 157.505L135.775 164.63L134.265 167.073L133.218 170.849L133.459 173.385L134.376 175.887L136.646 179.553L145.746 190.195L149.379 194.996L151.427 198.687L152.585 202.459L152.566 206.265L151.213 210.02L148.73 213.656L142.484 220.722L140.696 223.126L139.287 225.582L138.046 229.345L137.786 233.155L138.611 238.218L140.316 243.235L143.782 250.689" stroke="#E78BAE" stroke-width="3"/>
<path d="M179.875 0.855133L173.824 6.57013L168.635 12.4587L166.995 14.8844L165.762 17.3609L165.123 19.884L165.095 21.154L165.725 23.6728L167.254 26.1112L170.497 29.6206L176.789 35.2848L179.616 38.862L180.663 41.3554L180.997 43.887L180.737 46.4227L179.523 50.1946L177.67 53.9073L175.418 57.5733L171.146 63.6185L166.513 69.6045L156.681 81.4832L138.981 101.503L133.162 108.64L130.725 112.285L129.409 114.753L128.445 117.251L127.889 119.778L127.973 123.588L128.668 126.107L129.826 128.587L132.235 132.237L140.853 142.964L142.753 146.672L143.309 149.195L143.17 151.735L141.622 155.473L139.927 157.891L134.978 163.822L132.754 167.492L132.319 168.749L132.013 171.281L132.458 173.812L133.523 176.301L135.942 179.946L144.023 189.412L147.627 194.217L149.647 197.913L150.732 201.689L150.602 205.494L149.119 209.237L146.552 212.86L141.354 218.749L138.703 222.36L136.98 226.085L136.415 228.613L136.285 231.153L136.526 233.688L137.814 238.735L140.399 244.97L144.949 253.615" stroke="#E78BAE" stroke-width="3"/>
<path d="M203.515 0.749298L212.012 5.77426L214.894 7.94173L215.95 9.11436L217.099 11.5951L217.192 12.8651L216.682 15.3924L215.533 17.8731L214.004 20.3158L208.342 27.4828L182.312 55.5456" stroke="#E78BAE" stroke-width="3"/>
<path d="M262.154 1.2065L256.399 9.69856L248.866 19.2574L240.572 28.6808L233.446 35.5685L228.006 40.0008L222.076 44.2976L199.845 58.8899L186.269 68.4911L173.935 78.4352L161.462 89.7848L152.224 99.0219L145.023 107.281L141.066 113.364L139.973 115.854L139.269 118.372L139.028 120.912L139.278 123.448L140.038 125.963L141.261 128.439L144.764 133.257L152.251 141.461L155.078 145.047L157.033 148.747L157.589 151.274L157.404 153.81L155.745 157.539L153.929 159.935L147.525 166.971L145.274 170.637L144.847 171.89L144.597 174.426L145.097 176.953L146.228 179.443L147.813 181.872L150.75 185.441L164.298 199.365L170.525 206.434L176.002 213.631L185.787 228.198L190.68 234.141L194.331 237.566L197.121 239.763L201.782 242.917L211.669 249.055L214.579 251.219L217.035 253.496" stroke="#E78BAE" stroke-width="3"/>
<path d="M262.228 1.08374L257.363 8.37354L251.849 15.5617L246.614 21.4461L241.554 25.9673L237.078 29.1804L232.121 32.2411L212.503 42.9599L200.753 50.0422L190.18 57.5056L179.384 66.3829L171.934 73.2028L164.845 80.0989L147.942 97.5149L143.726 102.214L139.862 106.976L137.397 110.617L136.062 113.081L134.728 116.84L134.394 119.376L134.552 121.916L135.729 125.683L138.768 130.564L146.997 140.005L149.694 143.607L151.436 147.328L151.807 149.864L151.408 152.396L149.508 156.1L143.429 163.195L140.863 166.815L139.63 170.578L140.047 174.375L141.836 178.096L144.486 181.707L156.403 194.572L161.212 200.529L163.51 204.191L164.706 206.667L165.549 209.177L165.975 211.709L165.669 215.515L164.761 218.021L163.306 220.472L160.526 224.062L151.732 233.392L150.009 235.805L148.693 238.273L147.831 240.784L147.312 244.581L147.535 248.391L148.674 253.441" stroke="#E78BAE" stroke-width="3"/>
<path d="M226.802 0.944031L226.811 3.4798L225.319 7.2263L222.975 10.8797L219.277 15.6718L209.964 26.2805L172.777 65.9765" stroke="#E78BAE" stroke-width="3"/>
<path d="M262.756 0.237078L261.82 1.43511L263.368 2.47228L265.888 2.99298L268.604 3.27238L274.136 3.47981L285.228 3.18771L290.621 2.59081L293.114 2.03201L295.217 1.21074L296.737 0.148178" stroke="#E78BAE" stroke-width="3"/>
<path d="M262.636 0.414871L257.947 7.72584L257.391 8.97044L258.104 10.1939L260.18 11.0278L262.701 11.5528L265.388 11.8872L270.883 12.2428L276.434 12.3783L281.994 12.3148L287.461 11.8872L290.047 11.4215L292.289 10.6807L293.92 9.66047L295.699 7.2644L297.849 0.990604" stroke="#E78BAE" stroke-width="3"/>
<path d="M256.937 8.98314L253.536 13.8218L252.452 16.311L252.767 17.5683L254.194 18.6521L256.353 19.4479L258.827 20.0194L264.156 20.7391L269.623 21.1878L277.935 21.4799L283.477 21.3021L286.173 21.0016L288.647 20.4385L290.566 19.5284L291.77 18.3896L292.539 17.1704L294.43 12.1624L297.896 0.842438" stroke="#E78BAE" stroke-width="3"/>
<path d="M253.258 13.8557L249.653 18.6605L247.54 22.3435L247.235 23.6051L247.383 24.8708L248.254 26.0773L249.876 27.106L251.998 27.9231L256.937 29.0703L262.21 29.8789L267.612 30.4715L273.116 30.8271L278.667 30.9457L281.438 30.861L284.162 30.6028L286.627 30.0313L288.351 29.0534L289.305 27.8638L289.871 26.6234L298.072 0.215912" stroke="#E78BAE" stroke-width="3"/>
<path d="M262.478 0.677337L256.779 9.17787L243.973 25.9673L242.583 28.4226L241.777 30.9372L241.767 32.2072L242.166 33.4603L243.092 34.6583L244.566 35.7336L246.466 36.6564L248.662 37.4354L253.434 38.735L258.521 39.751L263.841 40.4918L272.023 41.2157L277.564 41.4105L280.344 41.3681L283.069 41.1311L285.478 40.5215L286.961 39.4674L287.619 38.2355L289.092 30.6451L290.658 24.3374L298.007 0.444504" stroke="#E78BAE" stroke-width="3"/>
<path d="M262.367 0.855133L255.769 10.5537L243.445 26.0773L239.979 30.9033L237.912 34.5948L237.041 37.1009L236.875 39.6367L237.19 40.8982L237.857 42.1301L238.922 43.3028L240.377 44.3823L243.964 46.3254L245.993 47.189L250.571 48.6241L255.565 49.7332L263.47 50.9439L271.634 51.7102L277.166 51.9388L282.689 51.7144L285.237 51.2191L287.063 50.2835L287.878 49.077L288.101 47.8155L287.925 38.9255L289.213 30.0567L291.186 22.4917L297.821 1.1176" stroke="#E78BAE" stroke-width="3"/>
<path d="M241.35 28.5242L236.022 35.7463L232.464 41.8804L230.647 46.8884L230.277 50.6942L231.046 54.4873L232.964 58.1872L235.169 60.5155L236.569 61.6119L238.163 62.6533L241.869 64.5456L246.16 66.1585L253.36 68.0678L261.144 69.4309L269.262 70.2903L277.555 70.6289L283.106 70.485L288.499 69.8881L290.992 69.3378L293.188 68.5631L294.847 67.5471L295.829 66.3617L296.181 65.1044L296.089 63.8387L295.116 61.341L290.167 52.7431L288.508 47.7224" stroke="#E78BAE" stroke-width="3"/>
<path d="M242.944 26.4668L233.576 38.4217L220.093 57.785L213.384 66.1289L205.683 74.2908L183.999 94.8944L176.567 103.107L173.074 107.929L171.044 111.625L169.71 115.384L169.311 117.915L169.561 121.721L170.331 124.236L171.572 126.712L174.213 130.323L177.596 133.807L181.488 137.173L195.758 148.074L199.734 151.422L203.153 154.893L205.572 158.534L206.313 161.053L206.341 162.319L206.128 163.584L204.951 166.065L204.033 167.263L201.67 169.562L191.245 177.063L187.363 180.433L185.528 182.829L184.898 184.065L184.286 186.588L184.481 189.124L185.963 192.871L189.401 197.701L194.924 203.526L205.97 213.779L210.604 218.398L214.625 223.131L217.062 226.775L219.453 231.733L221.205 238.032L221.992 244.369L222.335 253.259" stroke="#E78BAE" stroke-width="3"/>
<path d="M240.257 29.6122L228.108 43.8023L223.651 48.459L218.823 53.031L209.51 60.8372L191.051 75.0316L181.46 82.7659L172.453 90.6441L165.308 97.5318L159.007 104.584L155.597 109.419L153.271 114.385L152.539 118.178L152.65 120.713L153.252 123.237L154.346 125.73L155.856 128.173L159.869 132.91L169.534 142.058L172.87 145.546L176.243 150.385L177.614 154.136L177.577 156.676L177.253 157.937L175.993 160.409L172.972 163.957L165.632 170.798L162.871 174.388L161.87 176.886L161.676 178.151L161.879 180.687L162.778 183.193L164.205 185.649L167.041 189.23L170.405 192.714L175.372 197.261L182.071 202.823L187.733 207.196L208.454 222.246L212.364 225.607L215.654 229.108L217.433 231.513L218.851 233.968L220.741 238.972L221.705 244.03L222.27 252.916" stroke="#E78BAE" stroke-width="3"/>
<path d="M257.039 8.83073L251.507 16.0189L246.475 21.9371L241.99 26.5896L236.847 31.0896L232.482 34.3366L227.747 37.4735L205.813 50.5926L196.212 56.824L185.908 64.3636L175.214 73.2705L161.796 85.8224L148.23 99.7458L144.134 104.466L141.382 108.064L139.083 111.726L137.916 114.207L136.896 117.987L136.795 120.527L137.212 123.059L138.12 125.561L141.159 130.446L149.527 139.857L152.353 143.438L154.327 147.138L154.874 149.665L154.67 152.201L152.983 155.926L151.176 158.327L145.885 164.203L143.392 167.835L142.484 170.337L142.317 171.607L142.883 175.4L144.782 179.108L147.516 182.706L161.935 197.841L166.003 202.569L168.737 206.168L171.85 211.044L173.704 214.761L175.075 218.516L175.816 222.309L175.891 224.849L175.548 227.385L174.723 229.895L173.398 232.363L169.608 237.134L162.482 244.022L159.248 247.536L156.875 251.185L155.875 253.683" stroke="#E78BAE" stroke-width="3"/>
<path d="M244.974 23.6305L239.154 29.3963L232.26 34.9081L224.383 40.1405L205.942 51.2826L196.351 57.5141L187.428 63.953L177.855 71.6915L170.219 78.4648L162.964 85.3271L154.837 93.4043L148.22 100.398L144.171 105.131L141.493 108.737L139.306 112.416L137.86 116.163L137.415 118.694L137.462 121.234L138.027 123.761L139.065 126.255L142.308 131.111L152.668 142.892L154.837 146.571L155.578 149.085L155.587 151.625L154.179 155.372L152.483 157.789L146.191 164.846L143.846 168.499L143.077 171.014L143.337 174.815L145.005 178.545L147.609 182.165L151.844 186.859L163.177 198.454L169.256 205.549L174.352 212.805L178.374 220.197L180.487 225.188L182.155 230.209L183.341 235.259L183.832 239.061V242.871L183.193 246.668L181.849 250.427L180.376 252.874" stroke="#E78BAE" stroke-width="3"/>
<path d="M335.259 253.776L354.274 241.253L361.937 235.958L370.602 229.447L378.664 222.775L386.031 215.938L392.471 208.911L396.762 202.874L399.152 197.917L400.088 194.132L400.135 190.322L399.18 186.542L397.271 182.833L394.538 179.235L391.22 175.738L376.097 162.158L372.631 158.691L369.527 155.156L366.886 151.545L364.801 147.853L363.383 144.103L362.864 141.571L362.79 137.765L363.253 135.234L364.115 132.728L366.163 129.036L369.008 125.455L371.26 123.131L382.852 113.005L386.272 109.529L388.042 107.125L389.209 104.644L389.524 103.382L389.571 100.842L388.876 98.3234L387.551 95.8596L385.725 93.4593L383.538 91.1267L378.46 86.6055L363.077 74.5321L356.47 68.9483L349.418 62.0437L344.498 56.1086L341.273 51.2445L338.131 45.0596L335.898 38.7943L332.627 26.1832L331.552 23.694L329.866 21.2767L327.262 19.0373L325.575 18.0298L321.6 16.256L317.115 14.7574L305.337 11.3877L300.963 9.82133L299.174 8.85613L297.914 7.72583L297.293 6.4897L297.265 3.95393" stroke="#E78BAE" stroke-width="3"/>
<path d="M335.935 253.297L356.535 239.734L365.542 233.32L376.644 224.515L386.55 215.422L390.914 210.752L393.833 207.184L397.762 201.092L399.347 197.354L399.986 194.831L400.237 192.295L400.061 189.755L399.44 187.232L398.374 184.743L396.91 182.292L394.084 178.71L389.478 174.083L375.569 161.646L371.093 156.997L368.192 153.424L365.811 149.775L364.551 147.299L363.244 143.54L362.799 141.008L362.864 137.198L363.411 134.671L364.375 132.169L366.543 128.494L368.433 126.107L371.797 122.618L384.594 111.345L386.717 109L388.366 106.574L389.376 104.081L389.598 102.815L389.478 100.275L388.635 97.7688L386.272 94.1155L381.787 89.4715L376.486 85.0053L361.113 72.9319L353.458 66.1628L347.898 60.3419L343.265 54.356L340.967 50.6942L339.04 46.99L336.213 39.4801L334.564 31.8982L332.664 15.4136L331.876 12.899L330.449 10.4479L327.984 8.1788L324.435 6.22723L320.173 4.60163L306.375 0.321732" stroke="#E78BAE" stroke-width="3"/>
<path d="M338.752 47.0535L332.664 34.6625L330.866 32.2622L328.401 29.9889L325.112 27.9442L323.184 27.0298L318.894 25.4169L314.26 24.0157L302.279 20.7984L297.812 19.2871L295.968 18.343L294.68 17.2212L294.096 15.9851L294.022 14.7151" stroke="#E78BAE" stroke-width="3"/>
<path d="M399.366 196.562L399.959 192.765L399.597 188.959L398.235 185.204L396.808 182.749L394.019 179.159L390.655 175.675L376.709 163.242L369.944 156.278L367.164 152.688L364.912 149.018L363.3 145.284L362.429 141.495L362.299 138.955L362.864 135.158L364.356 131.411L366.71 127.758L368.702 125.387L372.177 121.924L383.807 111.802L386.012 109.474L387.782 107.065L388.941 104.585L389.376 102.053L389.042 99.5214L388.005 97.0238L385.438 93.4043L380.795 88.7899L375.42 84.3449L361.344 73.3933L352.263 65.532L346.481 59.7577L336.945 49.1913L334.564 46.8969L331.83 44.6871L326.817 41.6475L320.673 39.0779L313.76 36.9485L296.895 32.5205L294.652 31.7669L292.66 30.8864L291.149 29.8238L290.371 28.6089L290.315 26.0773L292.799 17.2593" stroke="#E78BAE" stroke-width="3"/>
<path d="M239.664 30.8229L237.125 34.4509L234.956 38.1296L233.381 41.8677L232.834 44.395L232.908 46.935L233.844 49.4326L235.892 51.7906L237.356 52.8701L241.026 54.7709L245.428 56.316L252.822 58.0644L260.644 59.3852L268.733 60.2996L277.018 60.7187L282.559 60.5621L285.247 60.2403L287.674 59.6392L289.481 58.6867L290.39 57.4929L290.621 56.2271L290.176 53.6998L288.703 48.6622L288.045 44.8649L287.878 39.7891L288.555 33.4476L290.936 23.3468L297.933 0.711212" stroke="#E78BAE" stroke-width="3"/>
<path d="M235.049 36.8554L232.658 40.5045L229.915 45.4279L227.793 50.4148L226.718 54.1909L226.153 57.9924L226.19 61.8024L226.95 65.5913L228.562 69.3293L230.925 72.9827L234.159 76.4921L238.459 79.7518L241.934 81.733L248.05 84.3153L252.646 85.7377L257.595 86.8934L265.499 88.1041L273.728 88.6968L282.059 88.7053L290.297 88.1423L295.634 87.4268L300.722 86.415L303.131 85.78L307.477 84.2052L309.321 83.2527L310.85 82.1944L312.018 81.0429L312.769 79.8237L313.102 77.2964L312.778 76.0349L311.406 73.5753L308.2 70.0617L297.423 61.1759L292.79 56.5616L291.066 54.1486L289.778 51.6763L288.295 46.6471" stroke="#E78BAE" stroke-width="3"/>
<path d="M234.196 38.2058L231.277 43.108L229.007 48.078L227.608 53.1199L227.321 56.9256L227.877 60.7229L229.526 64.4567L232.51 68.0085L235.327 70.1971L236.976 71.2174L240.748 73.08L245.057 74.6802L252.285 76.5768L260.106 77.8806L268.224 78.7485L276.517 79.1337L284.83 78.9305L290.26 78.3886L292.873 77.9611L297.692 76.708L299.721 75.8444L301.352 74.8157L302.464 73.6558L303.057 72.4154L303.178 71.1496L302.408 68.635L300.824 66.2051L294.578 59.1397L291.817 55.5456L289.815 51.8456L288.925 49.3395L287.989 44.2807L287.906 39.2007L288.444 34.1291L289.741 27.8045" stroke="#E78BAE" stroke-width="3"/>
<path d="M336.019 252.992L360.89 236.148L369.545 229.637L377.58 222.957L384.872 216.107L390.192 210.24L394.473 204.203L396.808 199.238L397.679 195.449L397.596 191.643L396.493 187.867L394.399 184.184L392.545 181.788L389.237 178.291L372.622 163.635L369.138 160.172L366.024 156.638L363.374 153.027L361.261 149.339L359.769 145.593L359 141.8L359.046 137.994L359.565 135.462L361.085 131.72L362.586 129.273L364.43 126.877L367.738 123.385L380.842 112.183L384.215 108.699L385.91 106.282L386.957 103.793L387.263 101.257L387.115 99.9871L386.3 97.4767L383.955 93.8276L381.852 91.4739L378.163 88.0576L372.678 83.6422L365.412 78.2278L347.787 65.2865L340.059 60.0117L334.916 57.0103L331.181 55.1307L327.169 53.3739L322.897 51.7483L313.751 48.8654L297.099 44.2637L292.688 42.7228L290.797 41.7957L289.37 40.7077L288.555 39.497L288.23 38.2397" stroke="#E78BAE" stroke-width="3"/>
<path d="M245.622 23.2325L237.06 33.9725L232.028 41.2369L227.895 48.6156L225.226 54.8471L222.567 63.6524L217.822 83.8581L211.493 103.971L210.576 110.304L211.021 115.375L211.771 117.894L213.652 121.602L215.431 124.007L217.628 126.34L220.204 128.592L223.141 130.746L226.403 132.804L231.852 135.687L237.894 138.311L242.221 139.907L249.125 142.037L253.999 143.256L259.077 144.297L264.322 145.127L269.734 145.72L275.248 146.033L280.799 146.029L283.56 145.893L288.981 145.335L291.594 144.903L294.115 144.369L298.822 143.023L303.029 141.364L306.745 139.48L311.657 136.398L323.407 127.775L329.578 123.546L337.844 118.444L351.605 110.46L357.925 106.286L360.649 104.072L362.883 101.748L364.439 99.3098L365.162 96.7952L365.005 94.2594L364.606 93.0021L363.272 90.5383L361.363 88.1549L359.018 85.852L354.904 82.5373L347 77.3176L339.994 73.3721L330.514 68.7324L320.302 64.4271L298.933 56.3076L295.069 54.483L291.863 52.4129L290.649 51.2699L289.074 48.84L288.305 46.3254L287.952 43.7896L287.869 39.9796L288.166 36.1738L289.861 27.3177" stroke="#E78BAE" stroke-width="3"/>
<path d="M232.992 39.5944L229.146 45.6946L226.45 50.6222L218.86 66.7639L214.885 74.1638L209.232 82.6685L197.5 98.2853L193.071 105.63L191.023 110.621L190.143 114.41L190.106 118.216L191.051 122L192.256 124.477L194.878 128.092L197.121 130.416L201.077 133.769L205.627 136.961L210.641 140.005L217.887 143.857L223.697 146.588L229.823 149.174L236.281 151.583L243.12 153.763L247.902 155.059L252.869 156.197L260.653 157.556L268.761 158.445L274.275 158.742L279.835 158.788L285.367 158.555L290.807 158.022L296.024 157.158L298.516 156.599L303.168 155.211L307.273 153.501L310.785 151.536L313.751 149.386L317.383 145.961L327.197 134.078L330.477 130.577L334.165 127.161L341.236 121.696L358.861 110.283L364.643 105.948L366.997 103.645L368.758 101.236L369.369 99.9998L369.953 97.4767L369.925 96.2067L369.24 93.6879L367.85 91.2283L365.904 88.8492L360.89 84.3195L356.479 81.0895L351.698 77.9653L341.273 72.0217L335.648 69.2065L329.745 66.5184L321.442 63.1402L301.713 56.1086L295.495 53.5728L292.02 51.6001L290.668 50.4867L288.962 48.078" stroke="#E78BAE" stroke-width="3"/>
<path d="M232.612 39.9119L220.204 59.4233L214.153 67.873L206.962 76.1323L188.762 94.6743L184.601 99.3817L181.793 102.972L179.366 106.617L177.475 110.325L176.308 114.097L176.02 116.633L176.437 120.434L177.929 124.181L180.422 127.817L184.981 132.444L189.077 135.763L195.11 140.03L217.896 154.44L227.015 160.824L231.092 164.148L233.446 166.446L235.336 168.834L236.513 171.315L236.634 173.846L236.189 175.099L234.326 177.487L232.983 178.6L229.748 180.662L216.534 187.185L211.382 190.174L208.583 192.371L206.554 194.733L205.868 195.961L205.136 198.476L205.386 202.281L206.749 206.036L208.713 209.741L216.126 221.979L217.952 225.696L219.824 230.704L220.815 234.484L221.659 239.552L222.354 253.517" stroke="#E78BAE" stroke-width="3"/>
<path d="M221.483 56.9426L216.377 64.1943L210.446 71.3148L204.914 77.1398L188.549 93.273L181.237 101.511L177.809 106.341L175.826 110.041L174.538 113.805L174.148 117.606L174.788 121.404L175.816 123.897L178.198 127.55L181.404 131.064L185.241 134.446L189.522 137.715L209.853 151.363L215.709 155.681L218.332 157.92L220.593 160.24L222.317 162.653L222.891 163.894L223.253 166.425L222.975 167.691L221.529 170.138L219.12 172.424L216.21 174.587L204.45 181.665L199.938 184.87L197.63 187.177L196.092 189.615L195.656 190.868L195.406 193.404L196.314 197.184L198.279 200.889L201.819 205.702L209.899 215.168L213.643 219.951L216.784 224.824L218.628 228.536L220.38 233.553L221.436 238.608L222.076 244.953L222.354 253.843" stroke="#E78BAE" stroke-width="3"/>
<path d="M357.99 253.297L362.549 247.299L368.971 240.267L375.921 233.341L398.754 211.582L404.416 205.782L409.633 199.898L414.192 193.899L417.139 189.006L419.215 184.015L420.141 178.956L420.095 176.416L419.678 173.884L418.9 171.37L417.083 167.653L412.7 161.629L403.082 151.079L399.199 146.317L396.224 141.427L395.223 138.93L394.64 136.402L394.51 133.862L394.862 131.331L395.687 128.82L396.956 126.348L400.542 121.539L407.094 114.533L410.032 110.968L412.052 107.277L412.617 104.75L412.45 102.214L410.958 98.4673L407.363 93.6667L400.756 86.669L397.744 83.1173L395.483 79.4512L394.501 75.6751L394.779 73.1393L396.632 69.4309L398.569 67.0518L404.119 61.2309L406.723 57.6157L408.011 53.8565L408.067 51.3165L407.557 48.7892L405.352 43.8108L402.164 38.9467L397.475 32.9692L386.374 19.9517L381.611 13.9869L376.616 6.7183L373.187 0.563034" stroke="#E78BAE" stroke-width="3"/>
<path d="M339.012 253.86L352.662 245.838L363.559 238.476L376.245 228.625L389.135 217.373L398.411 208.14L404.36 201.024L406.844 197.388L408.873 193.692L410.319 189.941L410.893 187.414L411.116 184.878L410.717 181.072L409.42 177.313L407.316 173.626L402.451 167.682L390.859 156.138L386.633 151.439L383.955 147.832L382.491 145.381L381.342 142.896L380.563 140.386L380.165 136.58L380.462 134.044L381.212 131.53L382.398 129.049L383.983 126.615L386.939 123.05L396.28 113.83L399.264 110.274L401.182 106.57L401.562 102.773L400.348 99.0092L397.901 95.3685L394.686 91.8549L382.667 80.4037L379.767 76.835L377.867 73.1266L377.441 70.5951L377.626 68.0593L378.423 65.5489L380.962 61.9252L389.469 53.9284L392.406 50.3682L394.084 46.6386L394.408 42.8371L393.657 39.044L391.582 34.0529L388.82 29.1338L378.182 12.0311L372.613 0.889008" stroke="#E78BAE" stroke-width="3"/>
<path d="M336.714 253.407L353.069 243.137L362.419 236.83L373.929 228.139L384.428 219.181L392.638 211.125L398.615 204.013L402.396 197.904L403.915 194.158L404.518 191.635L404.722 187.829L404.332 185.293L403.526 182.783L401.58 179.078L398.884 175.476L395.64 171.966L382.222 159.41L376.783 153.573L374.077 149.966L372.585 147.523L370.908 143.789L370.231 141.271L369.944 137.465L370.277 134.929L371.056 132.414L372.993 128.71L374.753 126.302L377.941 122.784L387.875 113.695L391.183 110.198L393.528 106.545L394.297 104.03L394.399 102.764L393.592 98.9753L392.258 96.5115L390.442 94.1112L385.873 89.4842L372.77 78.2828L368.044 73.6854L366.043 71.319L364.393 68.8933L362.91 65.1468L362.762 63.8768L363.077 61.3452L364.245 58.8645L365.996 56.4557L368.183 54.1189L377.598 46.3423L380.962 42.8583L383.158 39.188L384.085 35.4034L384.103 32.8634L383.751 30.3276L382.315 25.2942L371.89 0.347137" stroke="#E78BAE" stroke-width="3"/>
<path d="M337.751 252.205L353.783 241.829L363.003 235.479L374.373 226.75L383.427 218.88L391.424 210.778L396.178 204.813L398.476 201.151L399.699 198.675L401.2 193.641L401.321 189.835L400.867 187.304L399.968 184.798L397.864 181.115L396.03 178.714L392.795 175.205L377.83 161.586L374.364 158.119L371.26 154.584L368.619 150.973L366.543 147.282L365.144 143.527L364.653 141L364.541 138.46L365.144 134.662L366.07 132.156L367.396 129.692L369.091 127.275L372.223 123.745L383.659 113.58L388.107 108.928L389.682 106.494L390.609 103.988L390.785 101.452L390.21 98.9288L388.162 95.2373L383.937 90.5425L378.784 86.0425L363.707 73.8886L359.936 70.4935L356.516 67.0179L353.607 63.4492L352.05 61.0108L350.91 58.5258L350.326 55.9985L350.438 53.4628L350.79 52.2012L351.346 50.9609L353.06 48.5436L355.404 46.2449L358.11 44.0224L366.988 37.5751L369.703 35.3568L373.002 31.8601L375.105 28.1771L375.865 25.6625L376.199 23.1267L375.949 18.0509L374.633 11.7306L371.297 0.402176" stroke="#E78BAE" stroke-width="3"/>
<path d="M340.884 249.995L355.247 240.635L364.347 234.247L374.216 226.589L383.223 218.711L391.128 210.587L395.761 204.605L397.948 200.927L399.069 198.442L400.32 193.396L400.348 190.856L399.94 188.324L399.088 185.814L397.03 182.122L395.214 179.726L391.98 176.213L376.903 162.619L373.391 159.165L370.222 155.639L367.498 152.04L365.32 148.361L363.791 144.619L363.031 140.826L362.985 138.286L363.689 134.493L364.671 131.991L366.886 128.321L370.991 123.605L383.77 112.327L386.031 110.007L387.903 107.616L389.191 105.148L389.775 102.624L389.589 100.084L389.219 98.8272L388.005 96.3507L386.263 93.9377L381.731 89.3022L376.412 84.8402L359.769 71.6365L354.728 67.1068L351.281 63.6397L347.25 58.9068L344.739 55.2746L342.783 51.5705L341.551 47.8028L341.282 45.267L341.588 42.7313L342.579 40.2336L344.312 37.8248L348.084 34.4297L360.594 26.0308L363.448 23.8506L366.951 20.3962L368.647 17.979L370.24 14.2409L370.917 10.4479L370.852 5.36787L370.139 0.296341" stroke="#E78BAE" stroke-width="3"/>
<path d="M335.694 253.471L354.728 240.957L363.846 234.578L373.752 226.924L382.797 219.054L389.7 212.12L392.749 208.572L395.436 204.97L397.66 201.295L398.819 198.81L400.144 193.773L400.098 189.963L399.514 187.439L398.485 184.942L396.206 181.28L394.26 178.901L390.905 175.413L376.987 162.975L373.447 159.525L370.25 156.007L367.488 152.413L365.264 148.743L363.67 145.005L362.836 141.216L362.846 137.406L363.365 134.878L364.282 132.372L366.413 128.689L368.276 126.297L371.612 122.805L384.409 111.536L386.559 109.195L388.255 106.778L389.33 104.284L389.589 103.023L389.524 100.483L388.737 97.9722L386.429 94.3104L381.991 89.658L376.718 85.1876L358.685 70.8789L353.662 66.3492L348.084 60.5326L343.441 54.5509L339.818 48.4211L337.696 43.4342L336.056 37.1308L335.704 33.325L336.037 29.5192L337.399 25.7643L339.086 23.347L341.421 21.0399L344.275 18.8639L355.71 11.6715L360.112 8.43722L363.466 4.95319L365.005 2.51479L366.006 0.0171204" stroke="#E78BAE" stroke-width="3"/>
<path d="M335.129 34.9504L334.221 28.6173L333.859 22.2673L334.054 15.9173L334.629 12.12L336 8.36507L337.668 5.93937L340.04 3.6449L344.414 0.406403" stroke="#E78BAE" stroke-width="3"/>
<path d="M228.738 47.4472L226.7 52.4425L225.3 57.4802L224.717 61.2817L224.587 66.3575L224.995 70.1633L226.246 75.2094L228.358 80.1963L230.573 83.8708L233.4 87.4522L238.227 92.0284L242.564 95.2796L245.928 97.2989L251.775 100.008L256.214 101.537L261.061 102.781L263.609 103.281L268.928 104.021L274.414 104.402L277.194 104.466L282.745 104.36L288.24 103.975L293.633 103.357L298.887 102.536L304.002 101.541L308.951 100.381L313.695 99.06L318.199 97.5699L324.259 94.9621L327.614 92.9386L328.994 91.8379L330.987 89.4715L331.552 88.2269L331.784 85.6954L330.959 83.185L329.319 80.7593L325.807 77.3091L322.99 75.1205L318.273 71.9751L302.659 63.047L297.71 59.9821L293.54 56.6886L291.446 54.3348" stroke="#E78BAE" stroke-width="3"/>
<path d="M327.79 253.801L327.271 252.556L326.196 251.388L324.63 250.338L322.721 249.415L316.234 247.028L307.014 244.187L304.91 243.357L303.113 242.392L301.862 241.262L301.315 240.022L301.676 237.494L303.567 233.786L314.372 216.704L320.098 206.887L324.426 198.217L327.901 189.471L330.088 181.919L331.543 174.329L332.377 166.717L333.202 152.756L333.961 146.414L335.565 140.106L337.798 135.132L340.161 131.479L342.088 129.1L346.74 124.485L352.254 120.078L365.913 110.498L371.213 106.041L373.261 103.679L374.661 101.223L375.078 99.9659L375.272 97.4302L374.651 94.9071L373.326 92.4433L371.445 90.0557L367.896 86.6098L363.763 83.2993L359.241 80.0989L354.459 76.9789L347.732 72.9361L336.834 67.1661L326.863 62.7465L318.273 59.5249L302.483 54.3264L295.95 51.9599L292.159 50.11L290.64 49.0474L289.509 47.8875L288.314 45.411L287.925 42.8794L287.999 37.7994L288.684 32.7321L291.149 22.6356L297.784 1.25731" stroke="#E78BAE" stroke-width="3"/>
<path d="M332.136 253.022L334.564 249.377L335.527 246.88L335.388 244.348L334.693 243.116L333.544 241.96L330.505 239.839L328.717 238.866L324.676 237.122L316.114 233.883L312.426 231.991L311.045 230.89L310.118 229.692L309.683 228.443L309.859 225.908L311.416 222.165L319.153 208.653L323.017 201.24L326.316 193.768L328.93 186.245L330.533 179.938L331.812 172.339L333.257 152.032L333.869 146.96L334.99 141.906L336.88 136.902L338.196 134.434L340.68 130.797L343.793 127.262L346.184 124.972L353.088 119.465L366.728 109.88L369.462 107.671L371.853 105.376L373.734 102.989L374.92 100.508L375.217 99.2463L375.18 96.7105L374.346 94.2001L372.844 91.7575L370.833 89.3868L367.145 85.9705L362.929 82.6855L358.351 79.502L351.865 75.3745L346.74 72.3688L337.659 67.564L327.753 63.1105L317.013 59.0889L298.998 53.1283L294.801 51.4646L291.251 49.5173L289.954 48.3955L288.481 45.9528L287.971 43.4255L287.962 38.3455" stroke="#E78BAE" stroke-width="3"/>
<path d="M333.155 253.158L339.874 246.185L343.617 241.406L345.322 237.681L345.406 235.145L344.97 233.892L343.376 231.458L340.921 229.184L337.585 227.156L326.048 221.657L322.814 219.596L320.58 217.276L319.922 216.04L319.45 213.512L319.746 210.977L320.46 208.462L327.021 192.227L329.069 185.945L330.357 180.899L332.015 170.768L333.415 150.461L334.731 142.862L335.944 139.095L337.668 135.369L339.994 131.712L341.894 129.324L345.248 125.836L349.14 122.47L354.95 118.135L365.635 110.706L371 106.261L373.085 103.907L374.559 101.46L375.263 98.9415L375.115 96.4057L374.197 93.9038L372.622 91.4696L370.565 89.1074L368.146 86.8214L364.041 83.5067L359.547 80.2979L348.065 73.1224L337.205 67.3439L327.262 62.9073L316.475 58.9026L300.676 53.7168L294.328 51.253L290.908 49.2591L289.695 48.1161L288.388 45.6523" stroke="#E78BAE" stroke-width="3"/>
<path d="M332.822 253.975L345.415 242.65L351.179 236.876L354.913 232.093L356.238 229.629L356.989 227.114L356.915 224.574L356.072 222.064L355.414 220.832L353.394 218.47L349.01 215.231L336.927 208.267L334.026 206.104L331.756 203.788L330.227 201.346L329.393 198.84L329.106 193.764L332.052 173.49L333.795 148.103L335.101 141.783L337.01 136.779L338.335 134.315L340.837 130.679L345.137 125.997L351.828 120.434L365.477 110.854L369.638 107.556L373.002 104.072L374.522 101.63L375.003 100.381L375.337 97.8451L375.189 96.5793L373.613 92.8413L371.816 90.441L369.582 88.1126L364.263 83.6549" stroke="#E78BAE" stroke-width="3"/>
<path d="M333.906 253.352L351.512 238.938L360.242 230.992L363.476 227.482L366.219 223.884L368.22 220.188L368.962 217.674L369.054 215.134L368.813 213.868L367.294 210.126L365.505 207.725L363.096 205.435L360.242 203.255L349.159 195.948L344.896 192.676L341.44 189.213L338.91 185.585L336.816 180.598L335.666 175.544L334.823 167.936L334.36 159.046L334.49 150.161L335.62 142.558L337.881 136.296L340.856 131.403L343.83 127.847L348.705 123.283L354.385 118.914L366.506 110.397L370.574 107.074L373.743 103.552L375.087 101.092L375.643 98.5647L375.597 97.2947L375.356 96.0289L374.308 93.5398L372.64 91.114L370.518 88.7688L365.329 84.2814" stroke="#E78BAE" stroke-width="3"/>
<path d="M334.768 252.997L356.285 236.681L363.077 231.14L368.118 226.615L372.678 221.979L376.551 217.221L378.812 213.555L380.248 209.804L380.591 205.998L380.082 203.471L378.923 200.99L376.393 197.362L374.188 195.03L371.64 192.773L358.564 183.028L354.496 179.705L349.807 175.099L346.082 170.315L343.265 165.401L340.819 159.152L339.355 152.84L338.919 147.765L339.234 142.689L340.087 138.9L342.19 133.913L344.562 130.26L347.611 126.716L352.587 122.174L356.822 118.893L367.303 111.404L372.668 106.955L374.8 104.614L376.356 102.176L377.153 99.6654L377.126 97.1254L376.31 94.615L374.827 92.1681L372.844 89.7975L369.193 86.3727L365.023 83.0749L360.51 79.8703L354.135 75.7089L347.407 71.6619L336.547 65.8834L326.557 61.4722L317.912 58.2803L299.721 52.4341L295.394 50.8423L291.622 48.9839L290.167 47.9002L289.139 46.7233" stroke="#E78BAE" stroke-width="3"/>
<path d="M230.842 43.3239L227.154 50.7534L225.032 57.0272L223.809 63.3518L223.429 70.9676L224.142 79.8534L225.736 88.7095L228.173 97.5318L231.352 105.008L234.317 109.906L238.376 114.63L242.323 117.983L247.133 121.095L252.86 123.859L259.485 126.162L264.378 127.364L266.954 127.842L269.604 128.232L275.062 128.698L280.613 128.71L283.365 128.541L288.731 127.881L293.809 126.852L298.581 125.552L303.103 124.071L315.752 119.109L333.758 111.176L339.484 108.407L344.868 105.495L349.622 102.37L352.217 100.123L354.135 97.7434L355.21 95.2542L355.33 92.7185L355.043 91.4527L353.041 87.7612L349.752 84.2645L344.108 79.8915L337.548 75.7936L328.438 70.9972L318.579 66.5184L302.186 59.6561L296.496 56.8748L293.271 54.8047L291.956 53.6914L290.871 52.523L289.37 50.0761" stroke="#E78BAE" stroke-width="3"/>
<path d="M225.199 55.6726L223.558 61.976L222.428 69.5791L220.306 101.312L220.621 106.388L221.408 110.181L222.845 113.932L225.078 117.602L227.052 119.977L229.424 122.271L232.195 124.473L235.346 126.564L238.867 128.528L242.74 130.349L246.938 132.012L251.451 133.494L256.26 134.772L261.329 135.81L266.583 136.639L271.986 137.232L277.518 137.465L280.298 137.431L285.784 137.037L288.444 136.673L293.512 135.636L298.174 134.26L302.445 132.63L306.393 130.844L347.982 108.661L354.376 104.513L358.166 101.122L359.13 99.9279L360.446 97.464L360.881 94.9367L360.418 92.4052L359.88 91.1606L357.304 87.5411L353.681 84.1121L347.815 79.7983L339.392 74.748L330.079 70.0363L320.034 65.6505L301.12 58.1702L295.356 55.4228L292.215 53.3273L290.056 50.9947L288.842 48.5182L288.221 45.9952" stroke="#E78BAE" stroke-width="3"/>
<path d="M248.439 19.8205L238.728 31.7204L232.501 40.1447L227.784 47.4514L219.12 62.1665L213.235 70.6416L206.22 78.9305L190.912 95.2796L186.936 100.021L184.277 103.632L182.044 107.302L180.366 111.036L179.458 114.821L179.477 118.626L180.552 122.403L182.665 126.086L185.685 129.633L190.801 134.142L196.787 138.426L203.311 142.536L211.947 147.51L222.771 153.306L230.295 157.048L238.274 160.587L244.77 162.975L249.431 164.359L256.807 166.129L261.996 167.039L267.371 167.678L275.646 168.135L281.197 168.118L286.729 167.843L292.159 167.306L297.414 166.489L302.399 165.362L306.968 163.919L310.989 162.171L314.399 160.168L318.393 156.828L321.349 153.268L323.629 149.602L330.227 137.266L333.665 132.436L336.816 128.909L340.485 125.489L344.609 122.178L349.103 118.969L361.706 110.6L366.043 107.345L368.526 105.076L370.518 102.705L371.834 100.237L372.186 98.9796L372.251 96.4438L371.501 93.925L370.064 91.4739L368.091 89.1032L365.718 86.8045L361.641 83.4813L357.128 80.2767L352.3 77.1737L341.866 71.2301L336.25 68.4149L330.347 65.7225L319.876 61.5527L302.112 55.4397L295.746 52.9802L292.122 51.0582L290.695 49.9703L288.898 47.5742" stroke="#E78BAE" stroke-width="3"/>
<path d="M248.022 20.3242L238.32 32.2284L232.955 39.442L228.127 46.736L219.11 61.4087L213.912 68.6477L206.786 76.9197L189.893 94.3356L185.741 99.0473L182.933 102.637L179.792 107.51L178.087 111.235L177.151 115.02L177.16 118.83L177.753 121.353L178.819 123.846L180.339 126.289L182.257 128.672L184.518 130.992L188.419 134.358L197.473 140.754L229.1 160.075L238.552 166.357L250.571 174.904L255.658 177.923L259.532 179.739L264.128 181.161L269.326 182.046L274.812 182.435L280.372 182.465L288.638 182.004L296.691 181.026L301.852 180.082L309.043 178.16L313.287 176.522L316.948 174.617L319.978 172.487L323.425 169.024L325.112 166.603L326.437 164.135L328.679 157.874L331.376 146.507L332.924 141.478L335.138 136.504L338.298 131.631L342.496 126.932L347.667 122.436L352.022 119.185L364.338 110.727L368.545 107.438L370.935 105.148L372.817 102.756L374.003 100.279L374.29 99.0134L374.234 96.4777L373.382 93.9715L371.862 91.5289L369.842 89.1625L366.135 85.7504L361.891 82.4738L357.286 79.2946L350.743 75.1882L341.968 70.2649L332.46 65.6336L326.353 63.0428L319.941 60.6044L302.019 54.5888L295.57 52.1758L291.891 50.2793L290.464 49.1913L289.407 48.0187" stroke="#E78BAE" stroke-width="3"/>
<path d="M233.678 163.284L242.472 169.757L247.503 174.282L249.459 176.661L250.144 177.889L250.515 179.146L250.45 180.416L249.866 181.657L248.819 182.829L245.733 184.937L240.081 187.736L225.514 193.628L219.907 196.444L216.831 198.556L215.57 199.691L213.699 202.078L213.096 203.319L212.485 205.842L212.698 209.647L213.754 213.424L219.12 227.178L221.269 236.013" stroke="#E78BAE" stroke-width="3"/>
<path d="M241.387 168.648L249.551 175.29L255.445 181.039L260.338 186.982L264.091 193.095L266.621 199.335L267.936 205.655L268.177 209.461L268.048 213.271L266.871 220.874L265.24 227.178L264.211 228.359L262.506 229.358L258.188 230.954L243.945 234.912L237.208 237.16L233.122 238.874L229.702 240.877L227.135 243.125L225.384 245.533L223.846 249.276L223.095 253.069" stroke="#E78BAE" stroke-width="3"/>
<path d="M376.894 253.56L373.493 250.084L372.233 247.616L371.992 246.35L372.177 243.815L373.688 240.072L377.014 235.225L381.092 230.501L405.204 206.21L410.504 200.343L414.359 195.576L417.686 190.733L420.299 185.797L421.939 180.772L422.356 176.97L421.661 171.903L419.548 166.92L415.304 160.875L405.852 150.292L402.062 145.517L399.208 140.61L398.3 138.104L397.818 135.577L397.966 131.767L398.68 129.248L399.838 126.767L403.258 121.937L410.708 113.724L412.58 111.332L414.591 107.637L415.165 105.114L414.683 101.316L412.793 97.608L409.985 94.0223L403.508 86.9992L400.635 83.4221L398.596 79.7306L397.976 77.2118L398.105 74.6718L399.736 70.9422L401.571 68.5461L407.984 61.5146L410.198 57.8443L411.004 54.0597L410.439 50.2581L408.178 45.2882L404.907 40.4326L399.106 33.2909L382.574 14.4272L377.292 7.20091L373.66 1.07527" stroke="#E78BAE" stroke-width="3"/>
<path d="M229.053 46.7064L226.412 52.9421L224.985 57.9797L224.198 63.047L224.105 69.3928L224.958 75.7301L226.7 82.0293L229.341 88.2608L232.204 93.1714L235.892 97.9593L239.358 101.426L243.556 104.712L248.662 107.726L254.787 110.304L261.728 112.408L266.787 113.449L269.447 113.826L274.914 114.262L277.694 114.325L283.236 114.156L288.684 113.648L293.976 112.873L299.1 111.895L306.514 110.147L318.18 106.701L324.741 104.352L328.874 102.654L332.738 100.83L336.232 98.8526L339.179 96.702L340.392 95.559L342.135 93.1503L342.635 91.9014L342.82 89.3657L342.542 88.1041L341.347 85.6276L338.317 82.0801L334.304 78.7442L329.634 75.5862L322.721 71.6111L303.808 62.302L298.377 59.4106L293.744 56.2483L292.502 55.1138L290.566 52.7346" stroke="#E78BAE" stroke-width="3"/>
<path d="M305.883 253.852L301.046 252.599L298.785 251.862L296.858 250.952L295.653 249.817L295.347 248.56L295.607 247.294L296.737 244.809L301.88 236.237" stroke="#E78BAE" stroke-width="3"/>
<path d="M241.23 168.533L246.808 172.927L250.663 176.306L254.222 179.752L257.419 183.269L260.245 186.855L262.654 190.5L265.712 196.693L267.529 202.984L268.048 206.79L268.177 210.596L267.408 218.207L265.981 224.523L264.397 229.553L264.517 230.818L266.76 231.551L269.428 231.902L274.961 232.109L283.273 231.839L288.749 231.411L294.124 230.755L299.137 229.675L301.389 228.93L303.391 228.05L306.588 225.98L308.997 223.689L312.731 218.906L316.651 212.814L320.858 205.444L323.953 199.25L327.966 189.26L330.422 180.442L332.052 170.311L333.22 152.54L333.998 146.198L335.639 139.895L337.251 136.157L338.65 133.701L342.264 128.901L346.953 124.295L352.504 119.892L366.154 110.316L371.408 105.842L373.4 103.475L374.744 101.012L375.124 99.7543L375.254 97.2143L374.568 94.6997L373.187 92.2401L371.269 89.8567L368.952 87.5453L364.949 84.2052L360.529 80.9752L350.855 74.7691L340.272 68.8806L334.582 66.095L328.577 63.4534L317.893 59.3937L299.879 53.4374L293.633 50.9185L291.872 49.9364L290.427 48.8569L289.361 47.6843L288.267 45.1993" stroke="#E78BAE" stroke-width="3"/>
<path d="M267.918 203.12L270.346 203.721L273.079 203.945L278.63 203.907L286.868 203.31L292.243 202.662L297.479 201.82L302.52 200.749L307.348 199.483L311.851 198.001L315.808 196.219L317.55 195.233L320.553 193.095L323.991 189.628L326.465 185.992L328.272 182.275L329.977 177.254L331.691 168.398L333.702 146.829" stroke="#E78BAE" stroke-width="3"/>
<path d="M217.155 64.2705L213.56 69.0753L208.528 74.9935L187.372 97.1042L183.471 101.858L180.941 105.49L178.356 110.427L177.512 112.937L177.049 115.468L177.021 118.008L177.457 120.54L179.004 124.282L180.598 126.716L183.702 130.251L187.483 133.642L191.764 136.91L201.244 143.18L229.563 160.465L235.837 164.656L243.213 170.04L247.318 173.355L252.35 177.885L256.816 182.537L260.829 187.274L262.006 188.426L263.618 189.459L265.814 190.229L268.39 190.707L273.876 191.072L282.189 190.843L293.095 189.861L298.387 189.086L303.502 188.091L308.339 186.842L312.769 185.31L314.798 184.442L318.393 182.507L321.359 180.361L323.731 178.067L325.594 175.675L327.058 173.224L329.087 168.233L330.579 161.917L332.386 149.246L333.424 144.187L335.064 139.167L337.566 134.218L341.125 129.405L343.311 127.072L347.046 123.664L352.717 119.295L364.958 110.816L370.389 106.384L372.529 104.043L374.068 101.604L374.846 99.0896L374.911 97.8196L374.438 95.2923L373.224 92.8158L371.436 90.4113L369.212 88.083L365.301 84.7217L360.927 81.4747L356.248 78.3251L349.622 74.2442L338.919 68.4022L329.133 63.8937L318.495 59.8085L298.322 53.0521" stroke="#E78BAE" stroke-width="3"/>
<path d="M259.115 185.568L260.356 188.04L260.328 189.306L259.559 190.525L258.188 191.626L256.427 192.608L252.331 194.323L234.363 200.313L228.145 202.844L224.559 204.783L223.021 205.842L220.565 208.115L219.666 209.317L218.971 210.549L218.156 213.059L217.961 216.865L218.462 220.667L221.075 233.312L221.853 239.649" stroke="#E78BAE" stroke-width="3"/>
<path d="M260.616 187.367L264.295 193.489L266.38 198.48L266.407 199.75L265.314 200.914L263.544 201.892L259.226 203.488L240.35 208.856L233.742 211.18L229.869 212.996L226.681 215.075L225.393 216.196L223.466 218.58L221.937 222.318L221.455 226.124L222.372 252.785" stroke="#E78BAE" stroke-width="3"/>
<path d="M238.543 31.9447L230.666 42.7948L219.286 61.1209L214.116 68.3641L207.017 76.6403L187.984 96.4015L184.017 101.147L180.635 105.986L178.161 110.935L177.392 113.449L177.012 115.985L177.077 118.521L177.605 121.048L179.291 124.778L180.969 127.199L184.175 130.717L186.686 132.982L190.884 136.271L200.262 142.57L223.707 156.765L233.372 162.975L243.778 170.485L249.144 174.934L252.822 178.35L257.206 183.02L260.06 186.601L262.497 190.242L264.508 193.937L266.5 198.937L267.482 202.717L268.326 210.325L267.714 211.561L269.799 212.369L272.505 212.653L278.056 212.67L286.303 212.124L294.43 211.269L299.675 210.435L304.688 209.334L309.284 207.916L313.297 206.159L316.623 204.127L319.292 201.9L321.461 199.564L324.018 195.94L326.038 192.24L327.66 188.506L329.365 183.485L330.635 178.439" stroke="#E78BAE" stroke-width="3"/>
<path d="M229.526 44.5431L219.731 60.4351L213.708 68.889L206.535 77.1525L189.642 94.5684L185.509 99.2844L182.72 102.874L180.311 106.519L178.439 110.232L177.271 114.004L176.984 116.539L177.41 120.341L178.281 122.847L179.625 125.315L182.414 128.901L187.27 133.469L191.533 136.745L197.732 140.957L224.429 157.213L234.057 163.436L242.991 169.867L250.951 176.564L256.631 182.355L260.44 187.126L263.516 192.007L266.268 198.23L267.325 202.01L268.112 207.078L268.335 209.609L267.612 210.833L265.898 211.828L261.505 213.377L244.631 217.809L237.727 219.943L233.566 221.623L231.704 222.563L230.017 223.575L227.274 225.781L226.227 226.953L224.68 229.392L223.401 233.155L222.724 238.227L222.456 247.117" stroke="#E78BAE" stroke-width="3"/>
<path d="M266.509 220.743L268.474 221.615L271.143 221.958L276.693 222.076L282.226 221.856L290.445 221.213L295.801 220.535L300.935 219.562L305.624 218.207L307.718 217.369L311.295 215.43L315.298 212.094L319.116 207.327L322.758 201.202" stroke="#E78BAE" stroke-width="3"/>
<path d="M266.75 199.771L267.631 203.56L268.094 207.361L268.159 211.171L267.714 216.247L266.778 221.31L265.471 226.352L261.301 238.908L259.309 241.279L257.975 242.392L256.307 243.408L254.361 244.31L249.978 245.868L240.646 248.632L236.152 250.131L232.093 251.858L228.757 253.886" stroke="#E78BAE" stroke-width="3"/>
<path d="M395.529 253.234L393.972 250.795L391.85 248.45L387.041 243.87L385.067 241.495L383.899 239.018L383.659 237.752L383.64 236.482L384.159 233.955L385.243 231.466L386.726 229.015L390.386 224.223L394.575 219.515L412.191 200.859L416.185 196.118L419.771 191.309L422.755 186.415L424.469 182.689L425.822 177.648L425.989 173.842L425.349 170.045L423.255 165.058L419.057 159.008L410.865 149.564L407.14 144.776L404.37 139.857L403.517 137.35L403.1 134.819L403.378 131.013L404.166 128.499L405.398 126.022L407.928 122.394L414.137 115.32L416.963 111.739L418.39 109.283L419.252 106.777V102.972L417.751 99.2293L415.212 95.6014L408.957 88.5359L406.13 84.9545L404.129 81.2588L403.517 78.7358L403.665 76.2L405.315 72.4704L407.131 70.0701L412.367 64.1858L414.73 60.5367L415.73 56.7605L415.295 52.959L414.378 50.4529L413.089 47.9848L408.873 41.9354L401.775 33.6592L387.476 18.4954L382.259 12.6111L377.644 6.62094L373.79 0.520706" stroke="#E78BAE" stroke-width="3"/>
<path d="M222.493 56.0239L216.951 64.5456L211.382 71.7296L206.118 77.6055L189.225 95.0214L185.129 99.7458L181.553 104.555L178.763 109.47L177.179 114.495L177.049 118.301L177.966 122.085L179.94 125.785L182.831 129.358L186.464 132.787L190.634 136.085L199.984 142.392L221.761 155.567L229.934 160.706L237.709 165.968L244.927 171.391L250.191 175.865L254.907 180.467L258.985 185.191L262.367 190.03L264.99 194.966L267.149 201.236L268.001 206.299L268.094 212.649L267.492 217.72L266.111 224.041L258.271 249.182L259.42 250.334L261.709 251.049L267.028 251.752L275.34 252.044L280.891 251.968L286.396 251.617L289.009 251.198L291.307 250.491L293.012 249.492L294.198 248.344L295.903 245.931" stroke="#E78BAE" stroke-width="3"/>
<path d="M264.072 230.916L261.533 238.451L261.515 239.717L263.442 240.618L266.009 241.105L268.724 241.376L277.036 241.567L282.587 241.423L288.091 241.059L293.346 240.25L295.709 239.585L297.738 238.722L299.387 237.702L300.713 236.584L304.549 231.822L311.749 220.874" stroke="#E78BAE" stroke-width="3"/>
<path d="M412.598 253.505L416.481 248.746L418.918 245.102L420.558 241.368L420.957 238.836L420.614 236.305L419.483 233.82L417.741 231.407L413.72 226.674L411.588 222.995L410.995 219.198L411.829 215.413L413.618 211.692L415.99 208.039L430.298 190.149L435.394 182.893L438.601 176.716L439.815 172.949L440.241 170.417L440.324 167.877L440.037 165.341L438.369 160.321L435.478 155.418L428.129 145.83L424.914 140.97L423.246 137.236L422.523 133.443L422.912 129.642L424.386 125.895L426.712 122.233L432.281 115.054L433.875 112.619L435.042 110.139L435.635 107.616L435.533 105.076L434.199 101.321L431.836 97.6672L425.479 89.2683L423.7 85.5472L423.283 83.0157L423.607 80.4841L424.654 77.9907L426.248 75.5565L430.872 69.5706L432.262 67.111L433.05 64.5964L433.152 62.0607L432.17 58.2803L430.205 54.5804L426.739 49.7544L421.856 43.8065L405.889 24.8412L399.644 17.7758L392.786 10.8289L381.62 0.605377" stroke="#E78BAE" stroke-width="3"/>
<path d="M405.834 253.835L407.483 250.101L407.77 247.57L407.594 246.3L407.168 245.046L405.685 242.6L399.143 235.593L397.373 233.189L396.743 231.949L396.113 229.43L396.586 225.628L398.272 221.903L401.571 217.051L405.482 212.297L419.029 196.99L425.488 188.603L427.786 184.942L429.668 181.233L431.011 177.474L431.697 173.677L431.734 171.137L431.4 168.601L430.696 166.082L429.01 162.353L425.794 157.493L417.964 147.985L414.442 143.167L411.959 138.218L411.125 134.429L411.384 130.624L412.172 128.109L413.395 125.633L415.897 122L423.616 112.471L425.006 110.016L425.84 107.505L425.822 103.7L424.339 99.9575L421.837 96.321L414.118 86.796L412.237 83.0876L411.737 80.5603L411.987 78.0246L412.988 75.5269L414.591 73.097L420.466 65.968L421.902 63.5127L422.736 61.0066L422.894 58.4666L422.43 55.9393L420.836 52.2012L418.529 48.5394L414.822 43.7515L409.67 37.8545L403.091 30.8525L382.408 10.0372L378.358 5.30436L374.846 0.486832" stroke="#E78BAE" stroke-width="3"/>
<path d="M432.651 252.768L433.226 250.241L434.996 246.52L445.06 231.995L446.709 228.261L447.191 225.73L447.033 223.194L446.199 220.684L444.8 218.228L440.556 212.183L438.795 208.458L438.267 204.661L438.916 200.863L440.426 197.121L442.493 193.429L452.491 178.892L456.124 172.762L458.153 167.767L458.969 162.704L458.598 158.902L457.375 155.135L455.429 151.431L449.711 142.934L447.543 139.256L446.06 135.505L445.606 132.977L445.662 130.437L446.7 126.657L448.655 122.957L454.261 114.444L455.707 110.697L455.929 108.162L455.485 105.63L454.474 103.132L448.192 93.3873L447.015 90.9066L446.394 88.3835L446.468 85.8478L447.256 83.3332L448.618 80.8736L452.667 74.7988L453.789 72.3096L454.28 69.7823L454.076 67.2465L453.288 64.7319L452.047 62.2554L444.643 51.3419L442.502 47.6589L440.973 43.9166L440.315 40.1193L440.472 37.5793L441.659 33.8116L443.79 30.1286L448.794 22.86L450.545 19.1389L451.185 16.6158L451.361 12.8101L450.749 9.01278L449.535 5.24088L447.302 0.266708" stroke="#E78BAE" stroke-width="3"/>
<path d="M423.338 253.365L434.227 238.959L436.191 235.259L436.914 232.744L436.951 230.204L436.219 227.69L434.829 225.23L430.307 219.227L428.361 215.527L427.694 211.73L428.25 207.933L429.714 204.182L432.54 199.271L443.892 183.595L447.719 177.495L449.98 172.521L451.111 167.471L451.009 163.665L450.453 161.138L449.526 158.631L446.774 153.712L440.723 145.263L438.425 141.605L436.766 137.871L436.062 134.078L436.21 131.538L437.368 127.766L439.425 124.079L445.337 115.608L446.57 113.132L447.283 110.613L447.348 108.077L446.255 104.301L444.105 100.622L438.221 92.1512L437.136 89.662L436.692 87.1305L436.997 84.5947L438.008 82.1013L443.002 74.8326L444.364 72.3688L445.328 68.5885L445.143 66.0527L444.392 63.5381L442.474 59.8297L432.79 46.5836L429.658 41.7068L427.332 36.7411L426.6 34.2265L426.239 31.6907L426.526 27.885L427.657 24.1131L429.621 20.4131L435.024 13.2038L437.396 9.55041L438.943 5.80814L439.444 3.28084L439.537 0.740845" stroke="#E78BAE" stroke-width="3"/>
<path d="M419.224 253.183L425.136 246.058L428.574 241.228L430.344 237.507L430.844 234.98L430.585 232.444L429.538 229.95L424.08 222.754L422.013 219.067L421.281 215.278L421.837 211.476L423.329 207.73L426.23 202.827L437.943 187.211L442.789 179.921L445.662 173.711L446.579 169.926L446.746 167.386L446.292 163.584L444.383 158.581L441.344 153.7L433.513 142.845L431.641 139.133L430.65 135.352L430.742 131.547L431.956 127.779L434.06 124.092L439.36 116.87L440.889 114.427L442.001 111.938L442.53 109.411L442.4 106.875L441.047 103.116L439.574 100.669L434.217 93.4508L432.688 91.0082L431.614 88.519L431.169 85.9917L431.493 83.4559L432.531 80.9625L437.665 73.715L439.12 71.2639L440.028 68.762L440.287 66.2263L439.509 62.4332L437.692 58.7163L434.366 53.8692L425.905 43.1123L421.615 37.0755L417.426 29.7011L415.11 23.4442L414.47 19.6469L414.461 17.1069L415.601 12.0565L416.666 9.5631L418.121 7.112L422.875 1.14723" stroke="#E78BAE" stroke-width="3"/>
<path d="M417.658 253.234L422.634 247.307L426.081 242.477L427.851 238.756L428.324 236.228L428.027 233.693L426.934 231.204L421.383 224.024L419.326 220.332L418.649 216.539L419.27 212.742L420.827 209.004L423.792 204.106L436.553 187.312L441.334 180.014L444.077 173.791L444.698 171.268L444.967 167.462L444.392 163.661L442.974 159.91L440.055 155.008L433.745 146.6L430.585 141.728L428.973 137.994L428.324 134.197L428.796 130.395L430.325 126.653L432.661 122.995L438.758 114.558L439.935 112.073L440.556 109.55L440.51 107.014L439.259 103.251L436.988 99.585L430.807 91.1606L429.584 88.6799L428.963 86.161L429.093 83.621L429.973 81.1149L431.437 78.668L435.904 72.6525L437.757 68.9441L438.23 66.4126L437.739 62.6152L436.126 58.8772L433.791 55.2196L418.844 36.0849L414.72 30.0228L411.06 23.8929L407.326 16.4677L404.824 10.2235L403.387 5.18585L402.711 0.118546" stroke="#E78BAE" stroke-width="3"/>
<path d="M450.814 253.145L449.192 250.719L447.978 248.239L447.469 245.711L447.7 243.175L448.534 240.665L449.785 238.193L457.625 226.009L459.126 222.263L459.506 219.731L459.265 217.195L458.413 214.685L453.084 206.138L451.88 203.662L450.999 199.873L451.25 196.067L452.436 192.299L454.243 188.578L463.574 173.952L466.262 169.02L468.059 164.008L468.56 160.206L468.171 156.405L466.92 152.637L464.983 148.933L458.904 139.162L457.366 135.42L456.865 132.893V130.353L457.829 126.568L459.006 124.088L464.936 114.3L465.808 111.79L466.095 109.254L465.724 106.722L464.779 104.221L458.885 94.4288L457.894 91.9269L457.514 89.3954L457.838 86.8639L458.82 84.362L463.315 77.0256L464.334 74.5322L464.723 72.0006L464.418 69.4649L463.546 66.9587L462.258 64.4865L457.532 57.1798L455.438 53.4925L454.03 49.7375L453.64 47.206L453.789 44.666L455.03 40.9026L460.349 32.3555L462.138 28.6344L462.953 24.8455L462.787 21.0355L461.832 17.2552L459.747 12.2641L456.346 6.10882L452.463 0.0128174" stroke="#E78BAE" stroke-width="3"/>
<path d="M468.856 253.119L467.661 249.352L464.038 243.222L462.907 240.737L462.481 236.935L463.046 234.412L464.084 231.919L471.284 219.655L472.535 215.887L472.739 213.352L472.35 210.82L471.405 208.318L467.031 200.965L465.326 197.235L464.742 194.712L464.76 190.906L465.706 187.122L467.327 183.384L474.639 171.133L477.261 166.196L479.003 161.18L479.42 157.378L479.189 154.838L478.095 151.067L476.279 147.345L470.626 137.524L469.403 133.756L469.162 131.221L469.449 128.685L470.228 126.17L471.405 123.69L475.741 116.332L476.826 113.839L477.391 111.316L477.335 108.776L476.659 106.257L475.51 103.772L471.201 96.4099L470.218 93.9123L469.811 91.3807L470.487 87.5877L471.683 85.1069L474.62 80.209L475.741 77.724L476.279 75.1967L476.14 72.6567L474.833 68.8975L468.523 57.84L467.642 55.3339L467.235 52.8024L467.401 50.2624L468.143 47.7478L473.675 37.9095L474.935 34.1461L475.176 31.6103L474.963 29.0703L474.351 26.5472L471.692 20.32L467.374 12.9582L459.46 0.783173" stroke="#E78BAE" stroke-width="3"/>
<path d="M487.038 253.158L490.281 246.985L491.05 244.471L491.226 241.931L490.225 238.155L486.463 230.734L485.972 228.206L486.148 225.671L487.408 221.903L493.228 210.79L494.034 208.28L494.395 205.744L494.228 203.208L493.524 200.685L487.964 189.548L487.084 185.763L487.056 183.223L487.788 179.43L489.224 175.675L495.183 164.575L496.888 160.846L497.713 158.335L498.278 154.538L498.13 151.998L497.129 148.217L491.458 137.088L490.235 133.32L489.994 130.785L490.281 128.249L491.059 125.734L495.516 117.081L496.462 114.579L496.888 112.048L496.693 109.512L495.924 106.998L491.495 98.3403L490.54 94.56L491.05 90.7627L494.784 83.3374L495.72 80.8355L495.971 77.034L494.831 73.2621L490.309 64.6176L489.447 62.1072L489.095 59.5757L489.363 57.0399L490.197 54.5296L494.59 45.8682L495.238 43.3493L495.368 40.8093L494.988 38.2778L493.71 34.5144L485.731 19.7146L483.146 13.4789L482.302 9.6901L482.163 7.1501L482.738 3.3528L483.646 0.846664" stroke="#E78BAE" stroke-width="3"/>
<path d="M506.071 252.755L506.553 248.958L507.508 246.456L511.177 239.022L512.02 236.512L512.326 233.976L511.566 230.188L508.119 222.737L507.61 220.21L507.711 217.67L508.823 213.898L513.596 203.975L514.402 201.46L514.782 198.929L514.671 196.389L514.068 193.866L508.99 182.677L508.212 178.888L508.23 176.348L508.657 173.816L509.917 170.049L515.811 157.641L516.83 153.861L517.024 151.321L516.774 148.785L516.098 146.266L511.464 136.33L510.612 133.82L510.195 131.288L510.306 128.753L510.927 126.225L514.967 117.534L515.977 113.754L515.931 111.214L515.301 108.695L511.298 99.9956L510.603 96.2025L511.353 92.4137L514.309 86.2118L515.153 83.7015L515.245 79.8957L514.013 76.128L510.482 68.6858L509.75 64.8928L510.371 61.0997L514.319 52.396L514.865 49.8687L514.847 47.3287L514.319 44.8014L513.41 42.2952L509.092 33.6296L507.517 29.8873L506.433 24.837L506.498 22.297L507.433 18.5124L511.038 11.0744L512.475 7.32367L513.012 3.52213L512.836 0.982132" stroke="#E78BAE" stroke-width="3"/>
<path d="M524.855 253.742L522.575 248.772L522.01 244.975L522.853 241.19L526.745 232.482L527.468 228.689L526.81 224.896L523.567 217.42L523.039 213.622L523.4 211.091L524.206 208.576L528.654 198.624L529.321 196.101L529.553 193.565L529.303 191.029L528.589 188.51L524.243 178.549L523.641 176.022L523.539 172.216L524.771 167.17L530.211 154.72L530.823 152.197L531.017 149.657L530.758 147.121L530.072 144.602L526.18 135.89L525.374 133.38L525.003 130.844L525.429 127.042L529.609 117.069L530.22 113.271L529.525 109.478L526.217 102.011L525.364 98.226L525.92 94.4287L529.145 86.9527L529.673 83.1554L528.793 79.3708L525.476 71.9032L524.753 68.1143L525.401 64.317L528.663 56.8494L529.321 53.0521L528.728 49.2548L523.817 38.0492L523.029 35.5346L522.621 33.0031L522.677 30.4631L523.205 27.9358L527.496 17.9705L528.283 14.1817L528.256 11.6417L527.496 7.84861L524.401 0.364075" stroke="#E78BAE" stroke-width="3"/>
<path d="M542.702 253.352L542.434 249.547L539.505 242.049L539.088 238.248L540.015 234.463L543.184 226.983L543.777 224.46L543.814 221.92L543.249 219.397L540.2 211.904L539.756 208.102L540.488 204.313L545.028 193.074L545.519 190.542L545.557 188.007L544.75 184.213L540.701 174.227L540.191 171.7L540.108 169.16L541.164 164.105L545.788 152.874L546.354 150.347L546.502 147.811L546.187 145.275L545.455 142.756L541.85 134.023L541.238 130.226L541.785 126.428L544.88 118.94L545.835 115.159L545.538 111.354L542.082 102.608L541.563 98.8102L542.415 95.0256L545.001 88.7857L545.418 84.9842L544.463 81.2038L541.813 74.9723L541.127 71.1793L541.813 67.3862L544.806 59.8932L545.102 56.0874L544.185 52.3028L540.506 43.5737L539.876 41.0506L539.691 38.5149L540.367 34.7176L543.935 25.98L544.491 23.4527L544.584 20.9169L544.241 18.3811L543.11 14.6092L538.727 4.6482L537.393 0.884766" stroke="#E78BAE" stroke-width="3"/>
<path d="M555.75 14.7659L554.591 10.994L554.212 7.18821L554.527 4.65667L555.759 0.889008" stroke="#E78BAE" stroke-width="3"/>
</g>
<defs>
<clipPath id="clip0_48_196">
<rect width="556" height="254" rx="40" fill="white"/>
</clipPath>
</defs>
</svg>
