<svg width="496" height="136" viewBox="0 0 496 136" fill="none" xmlns="http://www.w3.org/2000/svg">
<path d="M0 6.61111L13.8053 21.0611C27.528 35.6056 55.1387 64.5056 82.6667 70.3611C110.195 76.2167 137.805 58.8389 165.333 59.5C192.861 60.1611 220.472 78.6722 248 85C275.528 91.3278 303.139 85.2833 330.667 85.1889C358.195 85 385.805 90.6667 413.333 95.6722C440.861 100.772 468.472 105.117 482.195 107.383L496 109.556V0H482.195C468.472 0 440.861 0 413.333 0C385.805 0 358.195 0 330.667 0C303.139 0 275.528 0 248 0C220.472 0 192.861 0 165.333 0C137.805 0 110.195 0 82.6667 0C55.1387 0 27.528 0 13.8053 0H0V6.61111Z" fill="#EAAAC5"/>
</svg>
