<svg width="50" height="50" viewBox="0 0 50 50" fill="none" xmlns="http://www.w3.org/2000/svg">
<path d="M16.0059 9.52148C16.1523 8.07617 17.041 7.08008 18.4668 6.76758C18.5156 6.75781 18.5547 6.72852 18.5938 6.70898C24.7754 6.70898 30.9668 6.70898 37.1484 6.70898C37.8223 6.89453 38.457 7.14844 38.9453 7.68555C39.541 8.33984 39.7559 9.11133 39.7559 9.9707C39.7559 15.5859 39.7559 21.1914 39.7559 26.8066C39.7559 29.5508 39.7656 32.2949 39.7559 35.0391C39.7559 36.582 38.877 37.7246 37.4219 38.0957C37.1777 38.1543 36.9043 38.1738 36.6504 38.1641" stroke="white" stroke-width="4" stroke-miterlimit="10" stroke-linecap="round" stroke-linejoin="round"/>
<path d="M10.6543 13.3203C11.0449 12.627 11.6895 12.1387 12.5586 11.9141C12.8418 11.8359 13.1445 11.8164 13.4473 11.8164C19.2383 11.8066 25.0195 11.8066 30.8105 11.8164C32.373 11.8164 33.4961 12.627 33.8965 14.0625C33.9941 14.4043 34.0137 14.7754 34.0137 15.127C34.0137 16.8164 34.0137 18.5156 34.0234 20.2051" stroke="white" stroke-width="4" stroke-miterlimit="10" stroke-linecap="round" stroke-linejoin="round"/>
<path d="M33.9746 22.1582C33.9746 22.1875 33.9746 22.2266 33.9746 22.2559" stroke="white" stroke-width="4" stroke-miterlimit="10" stroke-linecap="round" stroke-linejoin="round"/>
<path d="M34.0137 24.3066C34.0137 25.5176 34.0137 26.3574 34.0137 27.5684C34.0137 31.7383 34.0137 35.918 34.0137 40.0879C34.0137 41.6406 33.1934 42.7832 31.7676 43.1738C31.4648 43.2617 31.1328 43.291 30.8105 43.291C25.0195 43.3008 19.2383 43.3008 13.4473 43.291C11.5234 43.291 10.2441 42.0117 10.2441 40.0977C10.2441 37.3438 10.2441 34.5801 10.2441 31.8262" stroke="white" stroke-width="4" stroke-miterlimit="10" stroke-linecap="round" stroke-linejoin="round"/>
<path d="M10.2441 29.9707C10.2441 25.6055 10.2441 21.25 10.2441 16.8848" stroke="white" stroke-width="4" stroke-miterlimit="10" stroke-linecap="round" stroke-linejoin="round"/>
</svg>
