<svg width="50" height="50" viewBox="0 0 50 50" fill="none" xmlns="http://www.w3.org/2000/svg">
<g clip-path="url(#clip0_41_343)">
<path d="M25 50C11.195 50 0 38.805 0 25C0 11.195 11.195 0 25 0C38.805 0 50 11.195 50 25C50 38.805 38.805 50 25 50Z" fill="url(#paint0_linear_41_343)"/>
<path d="M25.0001 11.01C29.5551 11.01 30.0951 11.025 31.8951 11.11C33.5601 11.185 34.4651 11.465 35.0651 11.7C35.8601 12.01 36.4301 12.38 37.0251 12.975C37.6201 13.57 37.9901 14.14 38.3001 14.935C38.5351 15.535 38.8101 16.44 38.8901 18.105C38.9701 19.905 38.9901 20.445 38.9901 25C38.9901 29.555 38.9751 30.095 38.8901 31.895C38.8151 33.56 38.5351 34.465 38.3001 35.065C37.9901 35.86 37.6201 36.43 37.0251 37.025C36.4301 37.62 35.8601 37.99 35.0651 38.3C34.4651 38.535 33.5601 38.81 31.8951 38.89C30.0951 38.97 29.5551 38.99 25.0001 38.99C20.4451 38.99 19.9051 38.975 18.1051 38.89C16.4401 38.815 15.5351 38.535 14.9351 38.3C14.1401 37.99 13.5701 37.62 12.9751 37.025C12.3801 36.43 12.0101 35.86 11.7001 35.065C11.4651 34.465 11.1901 33.56 11.1101 31.895C11.0301 30.095 11.0101 29.555 11.0101 25C11.0101 20.445 11.0251 19.905 11.1101 18.105C11.1851 16.44 11.4651 15.535 11.7001 14.935C12.0101 14.14 12.3801 13.57 12.9751 12.975C13.5701 12.38 14.1401 12.01 14.9351 11.7C15.5351 11.465 16.4401 11.19 18.1051 11.11C19.9051 11.025 20.4451 11.01 25.0001 11.01ZM25.0001 7.935C20.3651 7.935 19.7851 7.955 17.9651 8.04C16.1501 8.125 14.9101 8.41 13.8201 8.835C12.7001 9.265 11.7451 9.85 10.8001 10.8C9.85005 11.75 9.27005 12.7 8.83005 13.825C8.41005 14.91 8.12005 16.15 8.03505 17.97C7.95005 19.79 7.93005 20.37 7.93005 25.005C7.93005 29.64 7.95005 30.22 8.03505 32.04C8.12005 33.855 8.40505 35.095 8.83005 36.185C9.26505 37.3 9.85005 38.255 10.8001 39.2C11.7501 40.15 12.7001 40.73 13.8251 41.17C14.9101 41.59 16.1501 41.88 17.9701 41.965C19.7901 42.05 20.3701 42.07 25.0051 42.07C29.6401 42.07 30.2201 42.05 32.0401 41.965C33.8551 41.88 35.0951 41.595 36.1851 41.17C37.3001 40.735 38.2551 40.15 39.2001 39.2C40.1501 38.25 40.7301 37.3 41.1701 36.175C41.5901 35.09 41.8801 33.85 41.9651 32.03C42.0501 30.21 42.0701 29.63 42.0701 24.995C42.0701 20.36 42.0501 19.78 41.9651 17.96C41.8801 16.145 41.5951 14.905 41.1701 13.815C40.7351 12.7 40.1501 11.745 39.2001 10.8C38.2501 9.85 37.3001 9.27 36.1751 8.83C35.0901 8.41 33.8501 8.12 32.0301 8.035C30.2151 7.955 29.6351 7.935 25.0001 7.935Z" fill="white"/>
<path d="M25.0001 16.235C20.1601 16.235 16.2351 20.16 16.2351 25C16.2351 29.84 20.1601 33.765 25.0001 33.765C29.8401 33.765 33.7651 29.84 33.7651 25C33.7651 20.16 29.8401 16.235 25.0001 16.235ZM25.0001 30.69C21.8601 30.69 19.3101 28.145 19.3101 25C19.3101 21.855 21.8601 19.31 25.0001 19.31C28.1401 19.31 30.6901 21.855 30.6901 25C30.6901 28.145 28.1401 30.69 25.0001 30.69Z" fill="white"/>
<path d="M34.1101 17.94C35.2422 17.94 36.1601 17.0222 36.1601 15.89C36.1601 14.7578 35.2422 13.84 34.1101 13.84C32.9779 13.84 32.0601 14.7578 32.0601 15.89C32.0601 17.0222 32.9779 17.94 34.1101 17.94Z" fill="white"/>
</g>
<defs>
<linearGradient id="paint0_linear_41_343" x1="7.32232" y1="42.6777" x2="42.6777" y2="7.32232" gradientUnits="userSpaceOnUse">
<stop stop-color="#FFD521"/>
<stop offset="0.0551048" stop-color="#FFD020"/>
<stop offset="0.1241" stop-color="#FEC01E"/>
<stop offset="0.2004" stop-color="#FCA71B"/>
<stop offset="0.2821" stop-color="#FA8316"/>
<stop offset="0.3681" stop-color="#F85510"/>
<stop offset="0.4563" stop-color="#F51E09"/>
<stop offset="0.5" stop-color="#F30005"/>
<stop offset="0.5035" stop-color="#F20007"/>
<stop offset="0.5966" stop-color="#E1003B"/>
<stop offset="0.6879" stop-color="#D30067"/>
<stop offset="0.7757" stop-color="#C70088"/>
<stop offset="0.8589" stop-color="#BF00A0"/>
<stop offset="0.9357" stop-color="#BB00AF"/>
<stop offset="1" stop-color="#B900B4"/>
</linearGradient>
<clipPath id="clip0_41_343">
<rect width="50" height="50" fill="white"/>
</clipPath>
</defs>
</svg>
