<svg width="50" height="50" viewBox="0 0 50 50" fill="none" xmlns="http://www.w3.org/2000/svg">
<path d="M34.2708 16.25V9.375H15.7291V16.25H12.6041V6.25H37.3958V16.25H34.2708ZM38.4895 24.3229C38.9062 24.3229 39.2708 24.1667 39.5833 23.8542C39.8958 23.5417 40.052 23.1771 40.052 22.7604C40.052 22.3438 39.8958 21.9792 39.5833 21.6667C39.2708 21.3542 38.9062 21.1979 38.4895 21.1979C38.0729 21.1979 37.7083 21.3542 37.3958 21.6667C37.0833 21.9792 36.927 22.3438 36.927 22.7604C36.927 23.1771 37.0833 23.5417 37.3958 23.8542C37.7083 24.1667 38.0729 24.3229 38.4895 24.3229ZM34.2708 40.625V30.625H15.7291V40.625H34.2708ZM37.3958 43.75H12.6041V34.5833H4.16663V21.7708C4.16663 20.2066 4.69614 18.8954 5.75517 17.8372C6.8142 16.7791 8.12496 16.25 9.68746 16.25H40.3125C41.8767 16.25 43.1879 16.7791 44.2461 17.8372C45.3042 18.8954 45.8333 20.2066 45.8333 21.7708V34.5833H37.3958V43.75ZM42.7083 31.4583V21.7596C42.7083 21.0727 42.4787 20.5035 42.0195 20.0521C41.5603 19.6007 40.9913 19.375 40.3125 19.375H9.68746C9.00864 19.375 8.43963 19.6046 7.98043 20.0638C7.52123 20.523 7.29163 21.092 7.29163 21.7708V31.4583H12.6041V27.5H37.3958V31.4583H42.7083Z" fill="white"/>
</svg>
