<svg width="50" height="50" viewBox="0 0 50 50" fill="none" xmlns="http://www.w3.org/2000/svg">
<path d="M37.8646 45.8333C36.2153 45.8333 34.8134 45.2544 33.6589 44.0966C32.5043 42.9387 31.9271 41.5327 31.9271 39.8786C31.9271 39.647 31.9531 39.3638 32.0052 39.029C32.0573 38.6942 32.1354 38.3928 32.2396 38.125L16.4583 28.9583C15.9375 29.5486 15.2951 30.026 14.5312 30.3906C13.7674 30.7552 12.9861 30.9375 12.1875 30.9375C10.5382 30.9375 9.13628 30.3602 7.98177 29.2057C6.82726 28.0512 6.25 26.6493 6.25 25C6.25 23.3507 6.82726 21.9488 7.98177 20.7943C9.13628 19.6397 10.5382 19.0625 12.1875 19.0625C12.9861 19.0625 13.75 19.2187 14.4792 19.5312C15.2083 19.8437 15.8681 20.2951 16.4583 20.8854L32.2396 11.8229C32.1354 11.5774 32.0573 11.3012 32.0052 10.9942C31.9531 10.6873 31.9271 10.3906 31.9271 10.1042C31.9271 8.45485 32.5043 7.05294 33.6589 5.89843C34.8134 4.74391 36.2153 4.16666 37.8646 4.16666C39.5139 4.16666 40.9158 4.74391 42.0703 5.89843C43.2248 7.05294 43.8021 8.45485 43.8021 10.1042C43.8021 11.7535 43.2248 13.1554 42.0703 14.3099C40.9158 15.4644 39.5139 16.0417 37.8646 16.0417C37.0537 16.0417 36.278 15.9114 35.5377 15.651C34.7973 15.3906 34.1667 14.9653 33.6458 14.375L17.8646 23.125C17.934 23.4028 17.9948 23.7239 18.0469 24.0885C18.099 24.4531 18.125 24.7611 18.125 25.0125C18.125 25.264 18.099 25.5244 18.0469 25.7938C17.9948 26.0632 17.934 26.3368 17.8646 26.6146L33.6458 35.5729C34.1667 35.0868 34.7743 34.6962 35.4688 34.401C36.1632 34.1059 36.9618 33.9583 37.8646 33.9583C39.5139 33.9583 40.9158 34.5356 42.0703 35.6901C43.2248 36.8446 43.8021 38.2465 43.8021 39.8958C43.8021 41.5451 43.2248 42.947 42.0703 44.1016C40.9158 45.2561 39.5139 45.8333 37.8646 45.8333ZM37.8664 12.9167C38.6638 12.9167 39.3316 12.647 39.8698 12.1075C40.408 11.5681 40.6771 10.8997 40.6771 10.1023C40.6771 9.30494 40.4074 8.63714 39.868 8.09895C39.3286 7.56075 38.6602 7.29166 37.8628 7.29166C37.0654 7.29166 36.3976 7.56136 35.8594 8.10077C35.3212 8.64018 35.0521 9.30858 35.0521 10.106C35.0521 10.9034 35.3218 11.5712 35.8612 12.1094C36.4006 12.6476 37.069 12.9167 37.8664 12.9167ZM12.1893 27.8125C12.9867 27.8125 13.6545 27.5428 14.1927 27.0034C14.7309 26.464 15 25.7956 15 24.9982C15 24.2008 14.7303 23.533 14.1909 22.9948C13.6515 22.4566 12.9831 22.1875 12.1857 22.1875C11.3883 22.1875 10.7205 22.4572 10.1823 22.9966C9.6441 23.536 9.375 24.2044 9.375 25.0018C9.375 25.7992 9.64471 26.467 10.1841 27.0052C10.7235 27.5434 11.3919 27.8125 12.1893 27.8125ZM37.8664 42.7083C38.6638 42.7083 39.3316 42.4386 39.8698 41.8992C40.408 41.3598 40.6771 40.6914 40.6771 39.894C40.6771 39.0966 40.4074 38.4288 39.868 37.8906C39.3286 37.3524 38.6602 37.0833 37.8628 37.0833C37.0654 37.0833 36.3976 37.353 35.8594 37.8924C35.3212 38.4319 35.0521 39.1003 35.0521 39.8976C35.0521 40.695 35.3218 41.3628 35.8612 41.901C36.4006 42.4392 37.069 42.7083 37.8664 42.7083Z" fill="white"/>
</svg>
